# Blender 4.2.1 LTS
# www.blender.org
o 24_circle_cs
v 23.602005 -0.040015 -2.000000
v 23.602005 -0.040016 6.000000
v 23.484613 1.127629 -2.000000
v 23.484613 1.127627 6.000000
v 23.353678 2.287598 -2.000000
v 23.353678 2.287597 6.000000
v 23.195345 3.437085 -2.000000
v 23.195345 3.437084 6.000000
v 22.995846 4.573747 -2.000000
v 22.995846 4.573746 6.000000
v 22.743580 5.696950 -2.000000
v 22.743580 5.696949 6.000001
v 22.436604 6.806071 -2.000000
v 22.436604 6.806069 6.000001
v 22.075649 7.898818 -2.000000
v 22.075649 7.898817 6.000000
v 21.661537 8.972505 -2.000000
v 21.661537 8.972505 6.000001
v 21.195148 10.024537 -2.000000
v 21.195148 10.024537 6.000001
v 20.677694 11.052458 -2.000000
v 20.677694 11.052458 6.000000
v 20.110493 12.053789 -2.000000
v 20.110493 12.053787 6.000000
v 19.494871 13.026055 -2.000000
v 19.494871 13.026055 6.000001
v 18.832201 13.966884 -1.999999
v 18.832201 13.966884 6.000000
v 18.124147 14.874104 -1.999999
v 18.124147 14.874104 6.000000
v 17.372496 15.745539 -2.000000
v 17.372496 15.745539 6.000001
v 16.579023 16.579023 -2.000000
v 16.579023 16.579023 6.000001
v 15.745541 17.372496 -1.999999
v 15.745541 17.372496 6.000001
v 14.874102 18.124147 -2.000000
v 14.874102 18.124147 6.000001
v 13.966883 18.832201 -1.999999
v 13.966883 18.832201 6.000001
v 13.026055 19.494873 -2.000000
v 13.026055 19.494873 6.000001
v 12.053788 20.110491 -2.000000
v 12.053788 20.110491 6.000002
v 11.052458 20.677696 -1.999999
v 11.052458 20.677692 6.000001
v 10.024537 21.195150 -2.000000
v 10.024537 21.195147 6.000001
v 8.972504 21.661537 -1.999999
v 8.972506 21.661537 6.000001
v 7.898817 22.075649 -2.000000
v 7.898819 22.075649 6.000001
v 6.806070 22.436602 -2.000000
v 6.806071 22.436602 6.000001
v 5.696948 22.743578 -2.000000
v 5.696949 22.743578 6.000001
v 4.573746 22.995846 -2.000000
v 4.573747 22.995846 6.000002
v 3.437084 23.195347 -1.999999
v 3.437085 23.195347 6.000001
v 2.287597 23.353682 -1.999999
v 2.287598 23.353682 6.000001
v 1.127628 23.484613 -1.999999
v 1.127629 23.484613 6.000001
v -0.040016 23.602007 -1.999999
v -0.040015 23.602003 6.000001
v 24.596989 0.060023 -2.000000
v 24.596989 0.060022 6.000000
v 24.478968 1.233742 -2.000000
v 24.478968 1.233741 6.000000
v 24.345917 2.411942 -2.000000
v 24.345917 2.411942 6.000000
v 24.183304 3.591809 -2.000000
v 24.183304 3.591808 6.000000
v 23.976433 4.769828 -2.000000
v 23.976433 4.769827 6.000000
v 23.713600 5.939968 -2.000000
v 23.713600 5.939966 6.000001
v 23.393543 7.096355 -2.000000
v 23.393543 7.096354 6.000001
v 23.017206 8.235671 -2.000000
v 23.017206 8.235671 6.000000
v 22.585417 9.355188 -2.000000
v 22.585417 9.355188 6.000001
v 22.099121 10.452127 -2.000000
v 22.099121 10.452127 6.000001
v 21.559616 11.523854 -2.000000
v 21.559616 11.523854 6.000000
v 20.968241 12.567859 -1.999999
v 20.968241 12.567857 6.000000
v 20.326342 13.581626 -2.000000
v 20.326342 13.581626 6.000001
v 19.635386 14.562615 -1.999999
v 19.635386 14.562615 6.000000
v 18.897158 15.508497 -1.999999
v 18.897158 15.508497 6.000000
v 18.113472 16.417068 -2.000000
v 18.113472 16.417068 6.000001
v 17.286131 17.286129 -2.000000
v 17.286131 17.286129 6.000001
v 16.417070 18.113472 -1.999999
v 16.417070 18.113472 6.000001
v 15.508495 18.897158 -2.000000
v 15.508495 18.897158 6.000001
v 14.562615 19.635384 -1.999999
v 14.562615 19.635384 6.000001
v 13.581626 20.326344 -2.000000
v 13.581626 20.326344 6.000001
v 12.567857 20.968241 -2.000000
v 12.567857 20.968241 6.000002
v 11.523854 21.559616 -1.999999
v 11.523854 21.559612 6.000001
v 10.452127 22.099123 -2.000000
v 10.452127 22.099119 6.000001
v 9.355186 22.585417 -1.999999
v 9.355188 22.585417 6.000001
v 8.235669 23.017206 -2.000000
v 8.235671 23.017206 6.000001
v 7.096354 23.393543 -1.999999
v 7.096355 23.393543 6.000001
v 5.939967 23.713598 -1.999999
v 5.939968 23.713598 6.000001
v 4.769828 23.976433 -2.000000
v 4.769829 23.976433 6.000002
v 3.591809 24.183306 -1.999999
v 3.591810 24.183306 6.000001
v 2.411941 24.345921 -1.999999
v 2.411942 24.345921 6.000001
v 1.233740 24.478968 -1.999999
v 1.233741 24.478968 6.000001
v 0.060023 24.596991 -1.999999
v 0.060024 24.596987 6.000001
vn -0.9950 -0.1000 -0.0000
vn -0.9937 -0.1122 -0.0000
vn -0.9906 -0.1365 -0.0000
vn -0.9849 -0.1729 -0.0000
vn -0.9757 -0.2191 -0.0000
vn -0.9638 -0.2667 -0.0000
vn -0.9495 -0.3137 -0.0000
vn -0.9330 -0.3599 -0.0000
vn -0.9142 -0.4053 -0.0000
vn -0.8932 -0.4496 -0.0000
vn -0.8701 -0.4929 -0.0000
vn -0.8449 -0.5350 -0.0000
vn -0.8176 -0.5758 -0.0000
vn -0.7883 -0.6153 -0.0000
vn -0.7572 -0.6531 -0.0000
vn -0.7243 -0.6895 -0.0000
vn -0.6895 -0.7243 -0.0000
vn -0.6531 -0.7572 -0.0000
vn -0.6153 -0.7883 -0.0000
vn -0.5758 -0.8176 -0.0000
vn -0.5350 -0.8449 -0.0000
vn -0.4929 -0.8701 -0.0000
vn -0.4496 -0.8932 -0.0000
vn -0.4053 -0.9142 -0.0000
vn -0.3599 -0.9330 -0.0000
vn -0.3136 -0.9495 -0.0000
vn -0.2667 -0.9638 -0.0000
vn -0.2191 -0.9757 -0.0000
vn -0.1729 -0.9849 -0.0000
vn -0.1365 -0.9906 -0.0000
vn -0.1122 -0.9937 -0.0000
vn -0.1000 -0.9950 -0.0000
vn 0.9950 0.1000 -0.0000
vn 0.9937 0.1122 -0.0000
vn 0.9906 0.1365 -0.0000
vn 0.9849 0.1730 -0.0000
vn 0.9757 0.2192 -0.0000
vn 0.9638 0.2667 -0.0000
vn 0.9495 0.3136 -0.0000
vn 0.9330 0.3599 -0.0000
vn 0.9142 0.4053 -0.0000
vn 0.8932 0.4496 -0.0000
vn 0.8701 0.4929 -0.0000
vn 0.8449 0.5350 -0.0000
vn 0.8176 0.5758 -0.0000
vn 0.7883 0.6153 -0.0000
vn 0.7572 0.6531 -0.0000
vn 0.7243 0.6895 -0.0000
vn 0.6895 0.7243 -0.0000
vn 0.6531 0.7572 -0.0000
vn 0.6153 0.7883 -0.0000
vn 0.5758 0.8176 -0.0000
vn 0.5350 0.8449 -0.0000
vn 0.4929 0.8701 -0.0000
vn 0.4496 0.8932 -0.0000
vn 0.4053 0.9142 -0.0000
vn 0.3599 0.9330 -0.0000
vn 0.3137 0.9495 -0.0000
vn 0.2667 0.9638 -0.0000
vn 0.2192 0.9757 -0.0000
vn 0.1730 0.9849 -0.0000
vn 0.1365 0.9906 -0.0000
vn 0.1122 0.9937 -0.0000
vn 0.1000 0.9950 -0.0000
vn 0.1000 -0.9950 -0.0000
vn -0.0000 -0.0000 1.0000
vn -0.0000 -0.0000 -1.0000
vn -0.9950 0.1000 -0.0000
vt 0.000000 1.000000
vt 0.031250 1.000000
vt 0.031250 0.000000
vt 0.000000 0.000000
vt 0.062500 1.000000
vt 0.062500 0.000000
vt 0.093750 1.000000
vt 0.093750 0.000000
vt 0.125000 1.000000
vt 0.125000 0.000000
vt 0.156250 1.000000
vt 0.156250 0.000000
vt 0.187500 1.000000
vt 0.187500 0.000000
vt 0.218750 1.000000
vt 0.218750 0.000000
vt 0.250000 1.000000
vt 0.250000 0.000000
vt 0.281250 1.000000
vt 0.281250 0.000000
vt 0.312500 1.000000
vt 0.312500 0.000000
vt 0.343750 1.000000
vt 0.343750 0.000000
vt 0.375000 1.000000
vt 0.375000 0.000000
vt 0.406250 1.000000
vt 0.406250 0.000000
vt 0.437500 1.000000
vt 0.437500 0.000000
vt 0.468750 1.000000
vt 0.468750 0.000000
vt 0.500000 1.000000
vt 0.500000 0.000000
vt 0.531250 1.000000
vt 0.531250 0.000000
vt 0.562500 1.000000
vt 0.562500 0.000000
vt 0.593750 1.000000
vt 0.593750 0.000000
vt 0.625000 1.000000
vt 0.625000 0.000000
vt 0.656250 1.000000
vt 0.656250 0.000000
vt 0.687500 1.000000
vt 0.687500 0.000000
vt 0.718750 1.000000
vt 0.718750 0.000000
vt 0.750000 1.000000
vt 0.750000 0.000000
vt 0.781250 1.000000
vt 0.781250 0.000000
vt 0.812500 1.000000
vt 0.812500 0.000000
vt 0.843750 1.000000
vt 0.843750 0.000000
vt 0.875000 1.000000
vt 0.875000 0.000000
vt 0.906250 1.000000
vt 0.906250 0.000000
vt 0.937500 1.000000
vt 0.937500 0.000000
vt 0.968750 1.000000
vt 0.968750 0.000000
vt 1.000000 1.000000
vt 1.000000 0.000000
s 0
f 2/1/1 4/2/1 3/3/1 1/4/1
f 4/2/2 6/5/2 5/6/2 3/3/2
f 6/5/3 8/7/3 7/8/3 5/6/3
f 8/7/4 10/9/4 9/10/4 7/8/4
f 10/9/5 12/11/5 11/12/5 9/10/5
f 12/11/6 14/13/6 13/14/6 11/12/6
f 14/13/7 16/15/7 15/16/7 13/14/7
f 16/15/8 18/17/8 17/18/8 15/16/8
f 18/17/9 20/19/9 19/20/9 17/18/9
f 20/19/10 22/21/10 21/22/10 19/20/10
f 22/21/11 24/23/11 23/24/11 21/22/11
f 24/23/12 26/25/12 25/26/12 23/24/12
f 26/25/13 28/27/13 27/28/13 25/26/13
f 28/27/14 30/29/14 29/30/14 27/28/14
f 30/29/15 32/31/15 31/32/15 29/30/15
f 32/31/16 34/33/16 33/34/16 31/32/16
f 34/33/17 36/35/17 35/36/17 33/34/17
f 36/35/18 38/37/18 37/38/18 35/36/18
f 38/37/19 40/39/19 39/40/19 37/38/19
f 40/39/20 42/41/20 41/42/20 39/40/20
f 42/41/21 44/43/21 43/44/21 41/42/21
f 44/43/22 46/45/22 45/46/22 43/44/22
f 46/45/23 48/47/23 47/48/23 45/46/23
f 48/47/24 50/49/24 49/50/24 47/48/24
f 50/49/25 52/51/25 51/52/25 49/50/25
f 52/51/26 54/53/26 53/54/26 51/52/26
f 54/53/27 56/55/27 55/56/27 53/54/27
f 56/55/28 58/57/28 57/58/28 55/56/28
f 58/57/29 60/59/29 59/60/29 57/58/29
f 60/59/30 62/61/30 61/62/30 59/60/30
f 62/61/31 64/63/31 63/64/31 61/62/31
f 64/63/32 66/65/32 65/66/32 63/64/32
f 68/1/33 67/4/33 69/3/33 70/2/33
f 70/2/34 69/3/34 71/6/34 72/5/34
f 72/5/35 71/6/35 73/8/35 74/7/35
f 74/7/36 73/8/36 75/10/36 76/9/36
f 76/9/37 75/10/37 77/12/37 78/11/37
f 78/11/38 77/12/38 79/14/38 80/13/38
f 80/13/39 79/14/39 81/16/39 82/15/39
f 82/15/40 81/16/40 83/18/40 84/17/40
f 84/17/41 83/18/41 85/20/41 86/19/41
f 86/19/42 85/20/42 87/22/42 88/21/42
f 88/21/43 87/22/43 89/24/43 90/23/43
f 90/23/44 89/24/44 91/26/44 92/25/44
f 92/25/45 91/26/45 93/28/45 94/27/45
f 94/27/46 93/28/46 95/30/46 96/29/46
f 96/29/47 95/30/47 97/32/47 98/31/47
f 98/31/48 97/32/48 99/34/48 100/33/48
f 100/33/49 99/34/49 101/36/49 102/35/49
f 102/35/50 101/36/50 103/38/50 104/37/50
f 104/37/51 103/38/51 105/40/51 106/39/51
f 106/39/52 105/40/52 107/42/52 108/41/52
f 108/41/53 107/42/53 109/44/53 110/43/53
f 110/43/54 109/44/54 111/46/54 112/45/54
f 112/45/55 111/46/55 113/48/55 114/47/55
f 114/47/56 113/48/56 115/50/56 116/49/56
f 116/49/57 115/50/57 117/52/57 118/51/57
f 118/51/58 117/52/58 119/54/58 120/53/58
f 120/53/59 119/54/59 121/56/59 122/55/59
f 122/55/60 121/56/60 123/58/60 124/57/60
f 124/57/61 123/58/61 125/60/61 126/59/61
f 126/59/62 125/60/62 127/62/62 128/61/62
f 128/61/63 127/62/63 129/64/63 130/63/63
f 130/63/64 129/64/64 131/66/64 132/65/64
f 2/1/65 1/4/65 67/4/65 68/1/65
f 4/2/66 2/1/66 68/1/66 70/2/66
f 1/4/67 3/3/67 69/3/67 67/4/67
f 6/5/66 4/2/66 70/2/66 72/5/66
f 3/3/67 5/6/67 71/6/67 69/3/67
f 8/7/66 6/5/66 72/5/66 74/7/66
f 5/6/67 7/8/67 73/8/67 71/6/67
f 10/9/66 8/7/66 74/7/66 76/9/66
f 7/8/67 9/10/67 75/10/67 73/8/67
f 12/11/66 10/9/66 76/9/66 78/11/66
f 9/10/67 11/12/67 77/12/67 75/10/67
f 14/13/66 12/11/66 78/11/66 80/13/66
f 11/12/67 13/14/67 79/14/67 77/12/67
f 16/15/66 14/13/66 80/13/66 82/15/66
f 13/14/67 15/16/67 81/16/67 79/14/67
f 18/17/66 16/15/66 82/15/66 84/17/66
f 15/16/67 17/18/67 83/18/67 81/16/67
f 20/19/66 18/17/66 84/17/66 86/19/66
f 17/18/67 19/20/67 85/20/67 83/18/67
f 22/21/66 20/19/66 86/19/66 88/21/66
f 19/20/67 21/22/67 87/22/67 85/20/67
f 24/23/66 22/21/66 88/21/66 90/23/66
f 21/22/67 23/24/67 89/24/67 87/22/67
f 26/25/66 24/23/66 90/23/66 92/25/66
f 23/24/67 25/26/67 91/26/67 89/24/67
f 28/27/66 26/25/66 92/25/66 94/27/66
f 25/26/67 27/28/67 93/28/67 91/26/67
f 30/29/66 28/27/66 94/27/66 96/29/66
f 27/28/67 29/30/67 95/30/67 93/28/67
f 32/31/66 30/29/66 96/29/66 98/31/66
f 29/30/67 31/32/67 97/32/67 95/30/67
f 34/33/66 32/31/66 98/31/66 100/33/66
f 31/32/67 33/34/67 99/34/67 97/32/67
f 36/35/66 34/33/66 100/33/66 102/35/66
f 33/34/67 35/36/67 101/36/67 99/34/67
f 38/37/66 36/35/66 102/35/66 104/37/66
f 35/36/67 37/38/67 103/38/67 101/36/67
f 40/39/66 38/37/66 104/37/66 106/39/66
f 37/38/67 39/40/67 105/40/67 103/38/67
f 42/41/66 40/39/66 106/39/66 108/41/66
f 39/40/67 41/42/67 107/42/67 105/40/67
f 44/43/66 42/41/66 108/41/66 110/43/66
f 41/42/67 43/44/67 109/44/67 107/42/67
f 46/45/66 44/43/66 110/43/66 112/45/66
f 43/44/67 45/46/67 111/46/67 109/44/67
f 48/47/66 46/45/66 112/45/66 114/47/66
f 45/46/67 47/48/67 113/48/67 111/46/67
f 50/49/66 48/47/66 114/47/66 116/49/66
f 47/48/67 49/50/67 115/50/67 113/48/67
f 52/51/66 50/49/66 116/49/66 118/51/66
f 49/50/67 51/52/67 117/52/67 115/50/67
f 54/53/66 52/51/66 118/51/66 120/53/66
f 51/52/67 53/54/67 119/54/67 117/52/67
f 56/55/66 54/53/66 120/53/66 122/55/66
f 53/54/67 55/56/67 121/56/67 119/54/67
f 58/57/66 56/55/66 122/55/66 124/57/66
f 55/56/67 57/58/67 123/58/67 121/56/67
f 60/59/66 58/57/66 124/57/66 126/59/66
f 57/58/67 59/60/67 125/60/67 123/58/67
f 62/61/66 60/59/66 126/59/66 128/61/66
f 59/60/67 61/62/67 127/62/67 125/60/67
f 64/63/66 62/61/66 128/61/66 130/63/66
f 61/62/67 63/64/67 129/64/67 127/62/67
f 66/65/66 64/63/66 130/63/66 132/65/66
f 65/66/68 66/65/68 132/65/68 131/66/68
f 63/64/67 65/66/67 131/66/67 129/64/67
