# Blender 4.2.1 LTS
# www.blender.org
mtllib 0.5-1_left_inner_circle.mtl
o 0.5-1_left_inner_circle
v -2.357684 0.518917 0.000000
v -1.769268 1.114774 0.000000
v -1.253241 1.794217 0.000000
v -0.818433 2.545623 0.000000
v -0.472283 3.356134 0.000000
v -0.220713 4.211883 0.000000
v -0.068029 5.098226 0.000000
v 0.000000 5.999999 0.000000
v -2.675016 0.253703 0.000000
v -2.055209 0.805961 0.000000
v -1.501828 1.444949 0.000000
v -1.025412 2.161876 0.000000
v -0.634112 2.944475 0.000000
v -0.334625 3.779354 0.000000
v -0.132074 4.652230 0.000000
v -0.027785 5.548166 0.000000
v 0.000000 0.000000 0.000000
v -3.000000 0.000000 0.000000
v -2.357686 0.518917 2.000000
v -1.769270 1.114774 2.000000
v -1.253244 1.794217 2.000000
v -0.818435 2.545623 2.000000
v -0.472285 3.356134 2.000000
v -0.220715 4.211883 2.000000
v -0.068031 5.098226 2.000000
v -0.000002 5.999999 2.000000
v -2.675019 0.253703 2.000000
v -2.055211 0.805960 2.000000
v -1.501830 1.444949 2.000000
v -1.025414 2.161876 2.000000
v -0.634115 2.944475 2.000000
v -0.334627 3.779354 2.000000
v -0.132076 4.652230 2.000000
v -0.027788 5.548166 2.000000
v -0.000002 -0.000000 2.000000
v -3.000002 -0.000000 2.000000
v -0.600000 0.000000 0.000000
v -1.200000 0.000000 0.000000
v -1.800000 0.000000 0.000000
v -2.400000 0.000000 0.000000
v -0.600002 -0.000000 2.000000
v -1.200002 -0.000000 2.000000
v -1.800002 -0.000000 2.000000
v -2.400002 -0.000000 2.000000
v 0.000000 5.545454 0.000000
v 0.000000 5.087302 0.000000
v 0.000000 4.540703 0.000000
v 0.000000 4.015924 0.000000
v 0.000000 3.536757 0.000000
v 0.000000 2.991096 0.000000
v 0.000000 2.440437 0.000000
v 0.000000 1.904224 0.000000
v 0.000000 1.271586 0.000000
v 0.000000 0.639741 0.000000
v -0.000002 5.545454 2.000000
v -0.000002 5.087302 2.000000
v -0.000002 4.540703 2.000000
v -0.000002 4.015924 2.000000
v -0.000002 3.536757 2.000000
v -0.000002 2.991096 2.000000
v -0.000002 2.440437 2.000000
v -0.000002 1.904224 2.000000
v -0.000002 1.271586 2.000000
v -0.000002 0.639741 2.000000
vn -0.0000 -0.0000 -1.0000
vn -0.0000 -0.0000 1.0000
vn -0.0000 -1.0000 -0.0000
vn -0.9670 0.2547 -0.0000
vn -0.6884 0.7254 -0.0000
vn -0.6154 0.7882 -0.0000
vn -0.8147 0.5799 -0.0000
vn -0.9898 0.1421 -0.0000
vn -0.7771 0.6294 -0.0000
vn -0.9803 0.1973 -0.0000
vn -0.8801 0.4747 -0.0000
vn -0.9981 0.0614 -0.0000
vn -0.8500 0.5267 -0.0000
vn -0.9960 0.0891 -0.0000
vn -0.9307 0.3659 -0.0000
vn -0.6413 0.7673 -0.0000
vn 1.0000 -0.0000 -0.0000
vn -0.9078 0.4195 -0.0000
vn -0.7338 0.6794 -0.0000
vn -0.9510 0.3093 -0.0000
vt 0.777190 0.085155
vt 0.000000 0.000000
vt 0.972451 0.339624
vt 0.982963 0.370591
vt 0.804381 0.103323
vt 0.828967 0.124885
vt 0.875115 0.171033
vt 0.896677 0.195619
vt 0.989343 0.402664
vt 0.995723 0.434737
vt 0.853554 0.146447
vt 0.914845 0.222810
vt 0.933013 0.250000
vt 0.997861 0.467369
vt 1.000000 0.500000
vt 0.947476 0.279329
vt 0.961940 0.308658
vt 0.924242 0.462121
vt 0.924242 0.462121
vt 0.106624 0.053312
vt 0.106624 0.053312
vt 0.211931 0.105966
vt 0.317371 0.158685
vt 0.406740 0.203370
vt 0.498516 0.249258
vt 0.589460 0.294730
vt 0.756784 0.378392
vt 0.669321 0.334660
vt 0.847884 0.423942
vt 0.756784 0.378392
vt 0.847884 0.423942
vt 0.589460 0.294730
s 0
usemtl Material
f 9/1/1 40/2/1 18/2/1
f 27/1/2 36/2/2 44/2/2
f 37/2/3 35/2/3 41/2/3
f 14/3/4 24/4/4 6/4/4
f 1/5/5 28/6/5 10/6/5
f 18/2/6 27/1/6 9/1/6
f 11/7/7 21/8/7 3/8/7
f 15/9/8 25/10/8 7/10/8
f 2/11/9 29/7/9 11/7/9
f 6/4/10 33/9/10 15/9/10
f 12/12/11 22/13/11 4/13/11
f 16/14/12 26/15/12 8/15/12
f 3/8/13 30/12/13 12/12/13
f 16/14/14 25/10/14 34/14/14
f 13/16/15 23/17/15 5/17/15
f 9/1/16 19/5/16 1/5/16
f 8/15/17 55/18/17 45/19/17
f 4/13/18 31/16/18 13/16/18
f 10/6/19 20/11/19 2/11/19
f 18/2/3 44/2/3 36/2/3
f 11/7/1 54/20/1 17/2/1
f 29/7/2 64/21/2 21/8/2
f 40/2/3 43/2/3 44/2/3
f 39/2/3 42/2/3 43/2/3
f 38/2/3 41/2/3 42/2/3
f 54/20/17 35/2/17 17/2/17
f 53/22/17 64/21/17 54/20/17
f 52/23/17 63/22/17 53/22/17
f 51/24/17 62/23/17 52/23/17
f 51/24/17 60/25/17 61/24/17
f 49/26/17 60/25/17 50/25/17
f 5/17/20 32/3/20 14/3/20
f 47/27/17 58/28/17 48/28/17
f 46/29/17 57/30/17 47/27/17
f 45/19/17 56/31/17 46/29/17
f 59/32/17 48/28/17 58/28/17
f 3/8/1 53/22/1 54/20/1
f 12/12/1 52/23/1 53/22/1
f 4/13/1 51/24/1 52/23/1
f 13/16/1 50/25/1 51/24/1
f 5/17/1 49/26/1 50/25/1
f 14/3/1 48/28/1 49/26/1
f 6/4/1 47/27/1 48/28/1
f 15/9/1 46/29/1 47/27/1
f 7/10/1 45/19/1 46/29/1
f 45/19/1 16/14/1 8/15/1
f 21/8/2 63/22/2 30/12/2
f 30/12/2 62/23/2 22/13/2
f 22/13/2 61/24/2 31/16/2
f 31/16/2 60/25/2 23/17/2
f 23/17/2 59/32/2 32/3/2
f 32/3/2 58/28/2 24/4/2
f 24/4/2 57/30/2 33/9/2
f 33/9/2 56/31/2 25/10/2
f 25/10/2 55/18/2 34/14/2
f 34/14/2 55/18/2 26/15/2
f 40/2/1 1/5/1 39/2/1
f 39/2/1 10/6/1 38/2/1
f 38/2/1 2/11/1 37/2/1
f 37/2/1 11/7/1 17/2/1
f 44/2/2 19/5/2 27/1/2
f 43/2/2 28/6/2 19/5/2
f 42/2/2 20/11/2 28/6/2
f 41/2/2 29/7/2 20/11/2
f 37/2/3 17/2/3 35/2/3
f 14/3/4 32/3/4 24/4/4
f 1/5/5 19/5/5 28/6/5
f 18/2/6 36/2/6 27/1/6
f 11/7/7 29/7/7 21/8/7
f 15/9/8 33/9/8 25/10/8
f 2/11/9 20/11/9 29/7/9
f 6/4/10 24/4/10 33/9/10
f 12/12/11 30/12/11 22/13/11
f 16/14/12 34/14/12 26/15/12
f 3/8/13 21/8/13 30/12/13
f 16/14/14 7/10/14 25/10/14
f 13/16/15 31/16/15 23/17/15
f 9/1/16 27/1/16 19/5/16
f 8/15/17 26/15/17 55/18/17
f 4/13/18 22/13/18 31/16/18
f 10/6/19 28/6/19 20/11/19
f 18/2/3 40/2/3 44/2/3
f 11/7/1 3/8/1 54/20/1
f 29/7/2 35/2/2 64/21/2
f 40/2/3 39/2/3 43/2/3
f 39/2/3 38/2/3 42/2/3
f 38/2/3 37/2/3 41/2/3
f 54/20/17 64/21/17 35/2/17
f 53/22/17 63/22/17 64/21/17
f 52/23/17 62/23/17 63/22/17
f 51/24/17 61/24/17 62/23/17
f 51/24/17 50/25/17 60/25/17
f 49/26/17 59/32/17 60/25/17
f 5/17/20 23/17/20 32/3/20
f 47/27/17 57/30/17 58/28/17
f 46/29/17 56/31/17 57/30/17
f 45/19/17 55/18/17 56/31/17
f 59/32/17 49/26/17 48/28/17
f 3/8/1 12/12/1 53/22/1
f 12/12/1 4/13/1 52/23/1
f 4/13/1 13/16/1 51/24/1
f 13/16/1 5/17/1 50/25/1
f 5/17/1 14/3/1 49/26/1
f 14/3/1 6/4/1 48/28/1
f 6/4/1 15/9/1 47/27/1
f 15/9/1 7/10/1 46/29/1
f 7/10/1 16/14/1 45/19/1
f 21/8/2 64/21/2 63/22/2
f 30/12/2 63/22/2 62/23/2
f 22/13/2 62/23/2 61/24/2
f 31/16/2 61/24/2 60/25/2
f 23/17/2 60/25/2 59/32/2
f 32/3/2 59/32/2 58/28/2
f 24/4/2 58/28/2 57/30/2
f 33/9/2 57/30/2 56/31/2
f 25/10/2 56/31/2 55/18/2
f 40/2/1 9/1/1 1/5/1
f 39/2/1 1/5/1 10/6/1
f 38/2/1 10/6/1 2/11/1
f 37/2/1 2/11/1 11/7/1
f 44/2/2 43/2/2 19/5/2
f 43/2/2 42/2/2 28/6/2
f 42/2/2 41/2/2 20/11/2
f 41/2/2 35/2/2 29/7/2
