# Blender 4.2.1 LTS
# www.blender.org
mtllib 1-2_left_circle.mtl
o 1-2_left_circle
v 0.000000 12.000000 0.000001
v -0.783157 11.897339 0.000001
v -1.552914 11.591110 0.000001
v -2.296101 11.086554 0.000000
v -3.000000 10.392304 0.000000
v -3.652569 9.520240 0.000000
v -4.242640 8.485281 0.000000
v -4.760120 7.305137 0.000000
v -5.196152 6.000000 0.000000
v -5.543277 4.592201 0.000000
v -5.795555 3.105829 0.000000
v -5.948669 1.566314 0.000000
v -6.000000 0.000000 0.000000
v 0.000000 0.000127 0.000000
v -0.783157 11.897339 2.000000
v 0.000000 12.000000 2.000000
v -1.552914 11.591110 2.000000
v -2.296101 11.086554 2.000000
v -3.000000 10.392304 2.000000
v -3.652569 9.520240 2.000000
v -4.242640 8.485281 2.000000
v -4.760120 7.305137 2.000000
v -5.196152 6.000000 2.000000
v -5.543277 4.592201 2.000000
v -5.795555 3.105829 2.000000
v -5.948669 1.566314 2.000000
v -6.000000 -0.000000 2.000000
v 0.000000 0.000127 2.000000
vn -0.0000 -0.0000 -1.0000
vn -0.0000 -0.0000 1.0000
vn -0.0000 -1.0000 -0.0000
vn -0.8687 0.4953 -0.0000
vn 1.0000 -0.0000 -0.0000
vn -0.9158 0.4016 -0.0000
vn -0.9485 0.3169 -0.0000
vn -0.1300 0.9915 -0.0000
vn -0.9709 0.2394 -0.0000
vn -0.3696 0.9292 -0.0000
vn -0.9859 0.1673 -0.0000
vn -0.5617 0.8273 -0.0000
vn -0.9951 0.0990 -0.0000
vn -0.7022 0.7120 -0.0000
vn -0.9995 0.0328 -0.0000
vn -0.8007 0.5991 -0.0000
vt 0.000000 0.500000
vt 0.004278 0.565263
vt 0.017037 0.629410
vt 0.038060 0.691342
vt 0.066987 0.750000
vt 0.103323 0.804381
vt 0.146447 0.853553
vt 0.195619 0.896677
vt 0.250000 0.933013
vt 0.308658 0.961940
vt 0.370590 0.982963
vt 0.434737 0.995722
vt 0.500000 1.000000
vt 0.500000 0.500005
s 0
usemtl Material
f 13/1/1 12/2/1 11/3/1 10/4/1 9/5/1 8/6/1 7/7/1 6/8/1 5/9/1 4/10/1 3/11/1 2/12/1 1/13/1 14/14/1
f 27/1/2 28/14/2 16/13/2 15/12/2 17/11/2 18/10/2 19/9/2 20/8/2 21/7/2 22/6/2 23/5/2 24/4/2 25/3/2 26/2/2
f 13/1/3 14/14/3 28/14/3 27/1/3
f 6/8/4 7/7/4 21/7/4 20/8/4
f 14/14/5 1/13/5 16/13/5 28/14/5
f 7/7/6 8/6/6 22/6/6 21/7/6
f 8/6/7 9/5/7 23/5/7 22/6/7
f 1/13/8 2/12/8 15/12/8 16/13/8
f 9/5/9 10/4/9 24/4/9 23/5/9
f 2/12/10 3/11/10 17/11/10 15/12/10
f 10/4/11 11/3/11 25/3/11 24/4/11
f 3/11/12 4/10/12 18/10/12 17/11/12
f 11/3/13 12/2/13 26/2/13 25/3/13
f 4/10/14 5/9/14 19/9/14 18/10/14
f 12/2/15 13/1/15 27/1/15 26/2/15
f 5/9/16 6/8/16 20/8/16 19/9/16
