# Blender 4.2.1 LTS
# www.blender.org
mtllib 0.5-1_right_circle.mtl
o 0.5-1_right_circle
v 0.000002 6.000001 0.000000
v 0.642317 5.481082 0.000000
v 1.230733 4.885226 0.000000
v 1.746759 4.205781 0.000000
v 2.181567 3.454376 0.000000
v 2.527718 2.643865 0.000000
v 2.779287 1.788116 0.000000
v 2.931971 0.901773 0.000000
v 0.000000 0.000000 0.000000
v 3.000000 -0.000000 0.000000
v 0.324984 5.746296 0.000000
v 0.944792 5.194039 0.000000
v 1.498173 4.555050 0.000000
v 1.974589 3.838123 0.000000
v 2.365888 3.055525 0.000000
v 2.665375 2.220644 0.000000
v 2.867927 1.347769 0.000000
v 2.972215 0.451833 0.000000
v 0.000002 6.000001 2.000000
v 0.642316 5.481082 2.000000
v 1.230732 4.885226 2.000000
v 1.746758 4.205781 2.000000
v 2.181567 3.454376 2.000000
v 2.527717 2.643865 2.000000
v 2.779286 1.788116 2.000000
v 2.931971 0.901773 2.000000
v -0.000001 0.000000 2.000000
v 3.000000 -0.000000 2.000000
v 0.324984 5.746296 2.000000
v 0.944791 5.194039 2.000000
v 1.498172 4.555050 2.000000
v 1.974588 3.838123 2.000000
v 2.365887 3.055525 2.000000
v 2.665375 2.220644 2.000000
v 2.867926 1.347769 2.000000
v 2.972214 0.451833 2.000000
vn -0.0000 -0.0000 -1.0000
vn -0.0000 -0.0000 1.0000
vn 0.6413 0.7673 -0.0000
vn -1.0000 -0.0000 -0.0000
vn 0.9307 0.3659 -0.0000
vn 0.6154 0.7882 -0.0000
vn 0.9981 0.0614 -0.0000
vn 0.9078 0.4195 -0.0000
vn 0.7338 0.6794 -0.0000
vn 0.9960 0.0891 -0.0000
vn 0.9670 0.2547 -0.0000
vn 0.6884 0.7254 -0.0000
vn 0.9510 0.3093 -0.0000
vn 0.8147 0.5799 -0.0000
vn 0.9898 0.1421 -0.0000
vn 0.7771 0.6294 -0.0000
vn 0.9803 0.1973 -0.0000
vn 0.8801 0.4747 -0.0000
vn -0.0000 -1.0000 -0.0000
vn 0.8500 0.5267 -0.0000
vt 0.804381 0.103323
vt 0.961940 0.308658
vt 0.995723 0.434737
vt 0.896677 0.195619
vt 0.777190 0.085155
vt 0.750000 0.497493
vt 0.750000 0.066987
vt 0.947476 0.279329
vt 0.997861 0.467369
vt 1.000000 0.500000
vt 0.933013 0.250000
vt 0.828967 0.124885
vt 0.853554 0.146447
vt 0.972451 0.339624
vt 0.982963 0.370591
vt 0.875115 0.171033
vt 0.989343 0.402664
vt 0.914845 0.222810
s 0
usemtl Material
f 2/1/1 6/2/1 8/3/1
f 26/3/2 22/4/2 20/1/2
f 29/5/3 2/1/3 11/5/3
f 27/6/4 1/7/4 9/6/4
f 15/8/5 24/2/5 6/2/5
f 19/7/6 11/5/6 1/7/6
f 36/9/7 10/10/7 18/9/7
f 5/11/8 33/8/8 15/8/8
f 12/12/9 21/13/9 3/13/9
f 26/3/10 18/9/10 8/3/10
f 16/14/11 25/15/11 7/15/11
f 2/1/12 30/12/12 12/12/12
f 6/2/13 34/14/13 16/14/13
f 13/16/14 22/4/14 4/4/14
f 35/17/15 8/3/15 17/17/15
f 21/13/16 13/16/16 3/13/16
f 7/15/17 35/17/17 17/17/17
f 14/18/18 23/11/18 5/11/18
f 28/10/19 9/6/19 10/10/19
f 22/4/20 14/18/20 4/4/20
f 10/10/1 9/6/1 1/7/1
f 1/7/1 11/5/1 2/1/1
f 2/1/1 12/12/1 3/13/1
f 3/13/1 13/16/1 4/4/1
f 4/4/1 14/18/1 5/11/1
f 5/11/1 15/8/1 6/2/1
f 6/2/1 16/14/1 7/15/1
f 7/15/1 17/17/1 8/3/1
f 8/3/1 18/9/1 10/10/1
f 10/10/1 1/7/1 2/1/1
f 2/1/1 3/13/1 4/4/1
f 4/4/1 5/11/1 6/2/1
f 6/2/1 7/15/1 8/3/1
f 8/3/1 10/10/1 2/1/1
f 2/1/1 4/4/1 6/2/1
f 19/7/2 27/6/2 28/10/2
f 28/10/2 36/9/2 26/3/2
f 26/3/2 35/17/2 25/15/2
f 25/15/2 34/14/2 24/2/2
f 24/2/2 33/8/2 23/11/2
f 23/11/2 32/18/2 22/4/2
f 22/4/2 31/16/2 21/13/2
f 21/13/2 30/12/2 20/1/2
f 20/1/2 29/5/2 19/7/2
f 19/7/2 28/10/2 26/3/2
f 26/3/2 25/15/2 24/2/2
f 24/2/2 23/11/2 22/4/2
f 22/4/2 21/13/2 20/1/2
f 20/1/2 19/7/2 26/3/2
f 26/3/2 24/2/2 22/4/2
f 29/5/3 20/1/3 2/1/3
f 27/6/4 19/7/4 1/7/4
f 15/8/5 33/8/5 24/2/5
f 19/7/6 29/5/6 11/5/6
f 36/9/7 28/10/7 10/10/7
f 5/11/8 23/11/8 33/8/8
f 12/12/9 30/12/9 21/13/9
f 26/3/10 36/9/10 18/9/10
f 16/14/11 34/14/11 25/15/11
f 2/1/12 20/1/12 30/12/12
f 6/2/13 24/2/13 34/14/13
f 13/16/14 31/16/14 22/4/14
f 35/17/15 26/3/15 8/3/15
f 21/13/16 31/16/16 13/16/16
f 7/15/17 25/15/17 35/17/17
f 14/18/18 32/18/18 23/11/18
f 28/10/19 27/6/19 9/6/19
f 22/4/20 32/18/20 14/18/20
