# Blender 4.2.1 LTS
# www.blender.org
mtllib 0.5-0.5_block.mtl
o 0.5-0.5_block
v 3.000000 3.000000 0.000000
v 0.000000 3.000000 0.000000
v 3.000000 0.000000 0.000000
v 0.000000 0.000000 0.000000
v 3.000000 3.000000 2.000000
v 0.000000 3.000000 2.000000
v 3.000000 -0.000000 2.000000
v 0.000000 -0.000000 2.000000
vn -0.0000 -0.0000 -1.0000
vn -0.0000 -0.0000 1.0000
vn -1.0000 -0.0000 -0.0000
vn 1.0000 -0.0000 -0.0000
vn -0.0000 -1.0000 -0.0000
vn -0.0000 1.0000 -0.0000
vt 0.500000 0.500000
vt 0.500000 1.000000
vt 1.000000 1.000000
vt 1.000000 0.500000
s 0
usemtl Material
f 4/1/1 2/2/1 1/3/1 3/4/1
f 8/1/2 7/4/2 5/3/2 6/2/2
f 2/2/3 4/1/3 8/1/3 6/2/3
f 3/4/4 1/3/4 5/3/4 7/4/4
f 4/1/5 3/4/5 7/4/5 8/1/5
f 1/3/6 2/2/6 6/2/6 5/3/6
