# Blender 4.2.3 LTS
# www.blender.org
o 12-24_left_inner_circle.cs
v -11.999991 -0.000000 -0.000000
v -11.999991 -0.000000 5.999999
v -10.433678 0.205323 -0.000000
v -10.433678 0.205323 5.999999
v -8.894164 0.817780 -0.000000
v -8.894162 0.817781 6.000000
v -7.407791 1.826894 -0.000002
v -7.407789 1.826895 5.999998
v -5.999992 3.215393 -0.000001
v -5.999992 3.215393 5.999998
v -4.694855 4.959523 -0.000002
v -4.694855 4.959522 5.999998
v -3.514714 7.029441 -0.000001
v -3.514714 7.029440 5.999999
v -2.479755 9.389729 -0.000000
v -2.479755 9.389729 5.999999
v -1.607691 12.000003 -0.000000
v -1.607691 12.000003 5.999999
v -0.913443 14.815601 0.000000
v -0.913443 14.815601 5.999999
v -0.408887 17.788345 0.000001
v -0.408887 17.788345 6.000000
v -0.102660 20.867376 0.000001
v -0.102660 20.867376 6.000001
v 0.000001 24.000004 0.000002
v 0.000001 24.000004 6.000001
v -11.870017 -0.991518 -0.000000
v -11.870017 -0.991518 5.999999
v -10.181929 -0.762470 -0.000000
v -10.181929 -0.762470 5.999999
v -8.425718 -0.065713 -0.000000
v -8.425716 -0.065711 6.000000
v -6.773211 1.054036 -0.000002
v -6.773210 1.054037 5.999998
v -5.246447 2.557998 -0.000002
v -5.246447 2.557997 5.999998
v -3.858553 4.411253 -0.000002
v -3.858553 4.411252 5.999998
v -2.621209 6.580387 -0.000001
v -2.621209 6.580386 5.999999
v -1.546647 9.030132 -0.000000
v -1.546647 9.030132 5.999999
v -0.647215 11.721639 -0.000000
v -0.647215 11.721639 5.999999
v 0.065631 14.612096 0.000000
v 0.065631 14.612096 5.999999
v 0.582198 17.655115 0.000001
v 0.582198 17.655115 6.000000
v 0.895166 20.801479 0.000001
v 0.895166 20.801479 6.000001
v 0.999464 23.967249 0.000002
v 0.999464 23.967249 6.000001
vn -0.1300 0.9915 -0.0000
vn -0.3696 0.9292 -0.0000
vn -0.5617 0.8273 -0.0000
vn -0.7022 0.7120 -0.0000
vn -0.8007 0.5991 -0.0000
vn -0.8687 0.4953 -0.0000
vn -0.9158 0.4016 -0.0000
vn -0.9485 0.3169 -0.0000
vn -0.9709 0.2394 -0.0000
vn -0.9859 0.1673 -0.0000
vn -0.9951 0.0990 -0.0000
vn -0.9995 0.0328 -0.0000
vn 0.1345 -0.9909 -0.0000
vn 0.3688 -0.9295 -0.0000
vn 0.5610 -0.8278 -0.0000
vn 0.7018 -0.7124 -0.0000
vn 0.8004 -0.5994 -0.0000
vn 0.8686 -0.4955 -0.0000
vn 0.9158 -0.4017 -0.0000
vn 0.9484 -0.3169 -0.0000
vn 0.9709 -0.2394 -0.0000
vn 0.9859 -0.1674 -0.0000
vn 0.9951 -0.0990 -0.0000
vn 0.9995 -0.0329 -0.0000
vn -0.9915 -0.1300 -0.0000
vn -0.0000 -0.0000 1.0000
vn -0.0000 -0.0000 -1.0000
vn 0.0328 0.9995 -0.0000
vt 0.000000 1.000000
vt 0.083333 1.000000
vt 0.083333 0.000000
vt 0.000000 0.000000
vt 0.166667 1.000000
vt 0.166667 0.000000
vt 0.250000 1.000000
vt 0.250000 0.000000
vt 0.333333 1.000000
vt 0.333333 0.000000
vt 0.416667 1.000000
vt 0.416667 0.000000
vt 0.500000 1.000000
vt 0.500000 0.000000
vt 0.583333 1.000000
vt 0.583333 0.000000
vt 0.666667 1.000000
vt 0.666667 0.000000
vt 0.750000 1.000000
vt 0.750000 0.000000
vt 0.833333 1.000000
vt 0.833333 0.000000
vt 0.916667 1.000000
vt 0.916667 0.000000
vt 1.000000 1.000000
vt 1.000000 0.000000
s 0
f 2/1/1 4/2/1 3/3/1 1/4/1
f 4/2/2 6/5/2 5/6/2 3/3/2
f 6/5/3 8/7/3 7/8/3 5/6/3
f 8/7/4 10/9/4 9/10/4 7/8/4
f 10/9/5 12/11/5 11/12/5 9/10/5
f 12/11/6 14/13/6 13/14/6 11/12/6
f 14/13/7 16/15/7 15/16/7 13/14/7
f 16/15/8 18/17/8 17/18/8 15/16/8
f 18/17/9 20/19/9 19/20/9 17/18/9
f 20/19/10 22/21/10 21/22/10 19/20/10
f 22/21/11 24/23/11 23/24/11 21/22/11
f 24/23/12 26/25/12 25/26/12 23/24/12
f 28/1/13 27/4/13 29/3/13 30/2/13
f 30/2/14 29/3/14 31/6/14 32/5/14
f 32/5/15 31/6/15 33/8/15 34/7/15
f 34/7/16 33/8/16 35/10/16 36/9/16
f 36/9/17 35/10/17 37/12/17 38/11/17
f 38/11/18 37/12/18 39/14/18 40/13/18
f 40/13/19 39/14/19 41/16/19 42/15/19
f 42/15/20 41/16/20 43/18/20 44/17/20
f 44/17/21 43/18/21 45/20/21 46/19/21
f 46/19/22 45/20/22 47/22/22 48/21/22
f 48/21/23 47/22/23 49/24/23 50/23/23
f 50/23/24 49/24/24 51/26/24 52/25/24
f 2/1/25 1/4/25 27/4/25 28/1/25
f 4/2/26 2/1/26 28/1/26 30/2/26
f 1/4/27 3/3/27 29/3/27 27/4/27
f 6/5/26 4/2/26 30/2/26 32/5/26
f 3/3/27 5/6/27 31/6/27 29/3/27
f 8/7/26 6/5/26 32/5/26 34/7/26
f 5/6/27 7/8/27 33/8/27 31/6/27
f 10/9/26 8/7/26 34/7/26 36/9/26
f 7/8/27 9/10/27 35/10/27 33/8/27
f 12/11/26 10/9/26 36/9/26 38/11/26
f 9/10/27 11/12/27 37/12/27 35/10/27
f 14/13/26 12/11/26 38/11/26 40/13/26
f 11/12/27 13/14/27 39/14/27 37/12/27
f 16/15/26 14/13/26 40/13/26 42/15/26
f 13/14/27 15/16/27 41/16/27 39/14/27
f 18/17/26 16/15/26 42/15/26 44/17/26
f 15/16/27 17/18/27 43/18/27 41/16/27
f 20/19/26 18/17/26 44/17/26 46/19/26
f 17/18/27 19/20/27 45/20/27 43/18/27
f 22/21/26 20/19/26 46/19/26 48/21/26
f 19/20/27 21/22/27 47/22/27 45/20/27
f 24/23/26 22/21/26 48/21/26 50/23/26
f 21/22/27 23/24/27 49/24/27 47/22/27
f 26/25/26 24/23/26 50/23/26 52/25/26
f 25/26/28 26/25/28 52/25/28 51/26/28
f 23/24/27 25/26/27 51/26/27 49/24/27
