# Blender 4.2.1 LTS
# www.blender.org
o 12-24_left_curve_cs
v -0.599287 24.028948 -1.999995
v -0.599287 24.028948 6.000006
v -0.656853 22.835810 -1.999995
v -0.656853 22.835810 6.000005
v -0.747588 21.649492 -1.999995
v -0.747588 21.649492 6.000006
v -0.904511 20.458622 -1.999995
v -0.904512 20.458622 6.000005
v -1.160139 19.250702 -1.999995
v -1.160140 19.250702 6.000005
v -1.546054 18.022266 -1.999996
v -1.546054 18.022266 6.000006
v -2.091200 16.802370 -1.999995
v -2.091203 16.802366 6.000005
v -2.824287 15.625656 -1.999997
v -2.824291 15.625650 6.000002
v -3.779830 14.520255 -1.999997
v -3.779830 14.520253 6.000002
v -4.984695 13.489219 -1.999997
v -4.984694 13.489219 6.000002
v -6.358419 12.484619 -1.999998
v -6.358418 12.484619 6.000003
v -7.774118 11.453102 -1.999998
v -7.774117 11.453102 6.000002
v -9.097482 10.334768 -1.999997
v -9.097482 10.334768 6.000002
v -10.201830 9.094481 -1.999997
v -10.201828 9.094480 6.000002
v -11.063265 7.771124 -1.999998
v -11.063265 7.771123 6.000003
v -11.701206 6.410575 -1.999998
v -11.701206 6.410573 6.000002
v -12.140031 5.053620 -1.999997
v -12.140029 5.053619 6.000002
v -12.407223 3.734165 -1.999998
v -12.407221 3.734164 6.000002
v -12.543362 2.456365 -1.999997
v -12.543362 2.456358 6.000001
v -12.592963 1.215240 -2.000000
v -12.592963 1.215232 6.000000
v -12.599992 0.003444 -2.000000
v -12.599992 0.003443 6.000000
v 0.399548 23.980707 -1.999995
v 0.399548 23.980707 6.000006
v 0.341202 22.773483 -1.999995
v 0.341202 22.773483 6.000005
v 0.247025 21.545837 -1.999995
v 0.247025 21.545837 6.000006
v 0.081078 20.289465 -1.999995
v 0.081078 20.289465 6.000005
v -0.192904 18.996822 -1.999995
v -0.192904 18.996822 6.000005
v -0.611074 17.667566 -1.999996
v -0.611074 17.667566 6.000006
v -1.208397 16.332628 -1.999995
v -1.208400 16.332624 6.000004
v -2.019265 15.032411 -1.999997
v -2.019269 15.032405 6.000002
v -3.074187 13.811687 -1.999997
v -3.074187 13.811686 6.000002
v -4.363604 12.705481 -1.999997
v -4.363603 12.705481 6.000002
v -5.768811 11.676929 -1.999998
v -5.768810 11.676929 6.000003
v -7.156888 10.666319 -1.999998
v -7.156888 10.666319 6.000002
v -8.399851 9.618311 -1.999998
v -8.399851 9.618311 6.000002
v -9.407101 8.487517 -1.999997
v -9.407099 8.487515 6.000002
v -10.189340 7.285064 -1.999998
v -10.189340 7.285063 6.000003
v -10.770862 6.043887 -1.999998
v -10.770862 6.043886 6.000002
v -11.172645 4.800314 -1.999998
v -11.172643 4.800313 6.000002
v -11.418863 3.582027 -1.999999
v -11.418861 3.582026 6.000002
v -11.546012 2.383612 -1.999997
v -11.546012 2.383605 6.000001
v -11.593222 1.192503 -2.000000
v -11.593222 1.192495 6.000000
v -11.600008 -0.002285 -2.000000
v -11.600008 -0.002286 6.000000
vn -0.9988 0.0482 -0.0000
vn -0.9971 0.0763 -0.0000
vn -0.9914 0.1306 -0.0000
vn -0.9783 0.2070 -0.0000
vn -0.9540 0.2997 -0.0000
vn -0.9130 0.4080 -0.0000
vn -0.8488 0.5288 -0.0000
vn -0.7565 0.6540 -0.0000
vn -0.6502 0.7598 -0.0000
vn -0.5903 0.8072 -0.0000
vn -0.5889 0.8082 -0.0000
vn -0.6455 0.7638 -0.0000
vn -0.7469 0.6650 -0.0000
vn -0.8381 0.5455 -0.0000
vn -0.9054 0.4245 -0.0000
vn -0.9515 0.3077 -0.0000
vn -0.9801 0.1985 -0.0000
vn -0.9944 0.1059 -0.0000
vn -0.9992 0.0399 -0.0000
vn -1.0000 0.0058 -0.0000
vn 0.9988 -0.0483 -0.0000
vn 0.9971 -0.0765 -0.0000
vn 0.9914 -0.1309 -0.0000
vn 0.9783 -0.2073 -0.0000
vn 0.9539 -0.3001 -0.0000
vn 0.9128 -0.4084 -0.0000
vn 0.8485 -0.5292 -0.0000
vn 0.7566 -0.6539 -0.0000
vn 0.6511 -0.7590 -0.0000
vn 0.5906 -0.8069 -0.0000
vn 0.5886 -0.8084 -0.0000
vn 0.6446 -0.7645 -0.0000
vn 0.7467 -0.6651 -0.0000
vn 0.8382 -0.5453 -0.0000
vn 0.9055 -0.4243 -0.0000
vn 0.9516 -0.3074 -0.0000
vn 0.9802 -0.1981 -0.0000
vn 0.9944 -0.1055 -0.0000
vn 0.9992 -0.0396 -0.0000
vn 1.0000 -0.0057 -0.0000
vn 0.0482 0.9988 -0.0000
vn -0.0000 -0.0000 1.0000
vn -0.0000 -0.0000 -1.0000
vn -0.0057 -1.0000 -0.0000
vt 0.000000 1.000000
vt 0.000000 0.000000
vt 0.050000 0.000000
vt 0.050000 1.000000
vt 0.100000 0.000000
vt 0.100000 1.000000
vt 0.150000 0.000000
vt 0.150000 1.000000
vt 0.200000 0.000000
vt 0.200000 1.000000
vt 0.250000 0.000000
vt 0.250000 1.000000
vt 0.300000 0.000000
vt 0.300000 1.000000
vt 0.350000 0.000000
vt 0.350000 1.000000
vt 0.400000 0.000000
vt 0.400000 1.000000
vt 0.450000 0.000000
vt 0.450000 1.000000
vt 0.500000 0.000000
vt 0.500000 1.000000
vt 0.550000 0.000000
vt 0.550000 1.000000
vt 0.600000 0.000000
vt 0.600000 1.000000
vt 0.650000 0.000000
vt 0.650000 1.000000
vt 0.700000 0.000000
vt 0.700000 1.000000
vt 0.750000 0.000000
vt 0.750000 1.000000
vt 0.800000 0.000000
vt 0.800000 1.000000
vt 0.850000 0.000000
vt 0.850000 1.000000
vt 0.900000 0.000000
vt 0.900000 1.000000
vt 0.950000 0.000000
vt 0.950000 1.000000
vt 1.000000 0.000000
vt 1.000000 1.000000
s 0
f 2/1/1 1/2/1 3/3/1 4/4/1
f 4/4/2 3/3/2 5/5/2 6/6/2
f 6/6/3 5/5/3 7/7/3 8/8/3
f 8/8/4 7/7/4 9/9/4 10/10/4
f 10/10/5 9/9/5 11/11/5 12/12/5
f 12/12/6 11/11/6 13/13/6 14/14/6
f 14/14/7 13/13/7 15/15/7 16/16/7
f 16/16/8 15/15/8 17/17/8 18/18/8
f 18/18/9 17/17/9 19/19/9 20/20/9
f 20/20/10 19/19/10 21/21/10 22/22/10
f 22/22/11 21/21/11 23/23/11 24/24/11
f 24/24/12 23/23/12 25/25/12 26/26/12
f 26/26/13 25/25/13 27/27/13 28/28/13
f 28/28/14 27/27/14 29/29/14 30/30/14
f 30/30/15 29/29/15 31/31/15 32/32/15
f 32/32/16 31/31/16 33/33/16 34/34/16
f 34/34/17 33/33/17 35/35/17 36/36/17
f 36/36/18 35/35/18 37/37/18 38/38/18
f 38/38/19 37/37/19 39/39/19 40/40/19
f 40/40/20 39/39/20 41/41/20 42/42/20
f 44/1/21 46/4/21 45/3/21 43/2/21
f 46/4/22 48/6/22 47/5/22 45/3/22
f 48/6/23 50/8/23 49/7/23 47/5/23
f 50/8/24 52/10/24 51/9/24 49/7/24
f 52/10/25 54/12/25 53/11/25 51/9/25
f 54/12/26 56/14/26 55/13/26 53/11/26
f 56/14/27 58/16/27 57/15/27 55/13/27
f 58/16/28 60/18/28 59/17/28 57/15/28
f 60/18/29 62/20/29 61/19/29 59/17/29
f 62/20/30 64/22/30 63/21/30 61/19/30
f 64/22/31 66/24/31 65/23/31 63/21/31
f 66/24/32 68/26/32 67/25/32 65/23/32
f 68/26/33 70/28/33 69/27/33 67/25/33
f 70/28/34 72/30/34 71/29/34 69/27/34
f 72/30/35 74/32/35 73/31/35 71/29/35
f 74/32/36 76/34/36 75/33/36 73/31/36
f 76/34/37 78/36/37 77/35/37 75/33/37
f 78/36/38 80/38/38 79/37/38 77/35/38
f 80/38/39 82/40/39 81/39/39 79/37/39
f 82/40/40 84/42/40 83/41/40 81/39/40
f 2/1/41 44/1/41 43/2/41 1/2/41
f 4/4/42 46/4/42 44/1/42 2/1/42
f 1/2/43 43/2/43 45/3/43 3/3/43
f 6/6/42 48/6/42 46/4/42 4/4/42
f 3/3/43 45/3/43 47/5/43 5/5/43
f 8/8/42 50/8/42 48/6/42 6/6/42
f 5/5/43 47/5/43 49/7/43 7/7/43
f 10/10/42 52/10/42 50/8/42 8/8/42
f 7/7/43 49/7/43 51/9/43 9/9/43
f 12/12/42 54/12/42 52/10/42 10/10/42
f 9/9/43 51/9/43 53/11/43 11/11/43
f 14/14/42 56/14/42 54/12/42 12/12/42
f 11/11/43 53/11/43 55/13/43 13/13/43
f 16/16/42 58/16/42 56/14/42 14/14/42
f 13/13/43 55/13/43 57/15/43 15/15/43
f 18/18/42 60/18/42 58/16/42 16/16/42
f 15/15/43 57/15/43 59/17/43 17/17/43
f 20/20/42 62/20/42 60/18/42 18/18/42
f 17/17/43 59/17/43 61/19/43 19/19/43
f 22/22/42 64/22/42 62/20/42 20/20/42
f 19/19/43 61/19/43 63/21/43 21/21/43
f 24/24/42 66/24/42 64/22/42 22/22/42
f 21/21/43 63/21/43 65/23/43 23/23/43
f 26/26/42 68/26/42 66/24/42 24/24/42
f 23/23/43 65/23/43 67/25/43 25/25/43
f 28/28/42 70/28/42 68/26/42 26/26/42
f 25/25/43 67/25/43 69/27/43 27/27/43
f 30/30/42 72/30/42 70/28/42 28/28/42
f 27/27/43 69/27/43 71/29/43 29/29/43
f 32/32/42 74/32/42 72/30/42 30/30/42
f 29/29/43 71/29/43 73/31/43 31/31/43
f 34/34/42 76/34/42 74/32/42 32/32/42
f 31/31/43 73/31/43 75/33/43 33/33/43
f 36/36/42 78/36/42 76/34/42 34/34/42
f 33/33/43 75/33/43 77/35/43 35/35/43
f 38/38/42 80/38/42 78/36/42 36/36/42
f 35/35/43 77/35/43 79/37/43 37/37/43
f 40/40/42 82/40/42 80/38/42 38/38/42
f 37/37/43 79/37/43 81/39/43 39/39/43
f 42/42/42 84/42/42 82/40/42 40/40/42
f 41/41/44 83/41/44 84/42/44 42/42/44
f 39/39/43 81/39/43 83/41/43 41/41/43
