# Blender 4.2.1 LTS
# www.blender.org
o 24-96_left_inner_circle_cs
v -0.505252 96.323593 -2.000004
v -0.505253 96.323593 5.999997
v -3.110004 92.256592 -2.000005
v -3.110004 92.256592 5.999996
v -5.661581 87.991280 -2.000004
v -5.661581 87.991280 5.999996
v -8.096160 83.370583 -2.000005
v -8.096160 83.370583 5.999996
v -10.396321 78.402328 -2.000006
v -10.396321 78.402328 5.999997
v -12.546206 73.094032 -2.000006
v -12.546206 73.094032 5.999996
v -14.543385 67.481911 -2.000006
v -14.543385 67.481911 5.999996
v -16.373018 61.576893 -2.000006
v -16.373018 61.576893 5.999996
v -18.034578 55.415691 -2.000007
v -18.034578 55.415691 5.999996
v -19.513845 49.013809 -2.000006
v -19.513845 49.013809 5.999994
v -20.812298 42.407871 -2.000007
v -20.812298 42.407871 5.999995
v -21.916607 35.617645 -2.000007
v -21.916607 35.617645 5.999994
v -22.830288 28.679083 -2.000008
v -22.830288 28.679083 5.999994
v -23.541197 21.615843 -2.000008
v -23.541197 21.615843 5.999993
v -24.054750 14.463259 -2.000007
v -24.054750 14.463259 5.999992
v -24.377293 7.251955 -2.000008
v -24.377293 7.251958 5.999993
v -24.599716 0.018437 -2.000000
v -24.599716 0.018444 6.000000
v 0.336835 95.784248 -2.000005
v 0.336835 95.784248 5.999997
v -2.259785 91.730164 -2.000005
v -2.259786 91.730164 5.999996
v -4.789828 87.501335 -2.000004
v -4.789828 87.501335 5.999996
v -7.199776 82.927299 -2.000005
v -7.199776 82.927299 5.999996
v -9.478880 78.004456 -2.000006
v -9.478880 78.004456 5.999997
v -11.611493 72.738625 -2.000006
v -11.611493 72.738625 5.999996
v -13.594520 67.166229 -2.000006
v -13.594520 67.166229 5.999996
v -15.412499 61.298676 -2.000006
v -15.412499 61.298676 5.999996
v -17.064501 55.172897 -2.000007
v -17.064501 55.172897 5.999996
v -18.535936 48.804783 -2.000006
v -18.535936 48.804783 5.999994
v -19.828035 42.231155 -2.000007
v -19.828035 42.231155 5.999995
v -20.927256 35.472088 -2.000007
v -20.927256 35.472088 5.999994
v -21.836964 28.563721 -2.000008
v -21.836964 28.563721 5.999994
v -22.544893 21.529955 -2.000008
v -22.544893 21.529955 5.999993
v -23.056444 14.405108 -2.000007
v -23.056444 14.405108 5.999992
v -23.378004 7.214249 -2.000008
v -23.378004 7.214252 5.999993
v -23.600189 -0.012296 -2.000000
v -23.600189 -0.012288 6.000000
vn -0.8421 0.5393 -0.0000
vn -0.8582 0.5134 -0.0000
vn -0.8847 0.4661 -0.0000
vn -0.9075 0.4201 -0.0000
vn -0.9269 0.3754 -0.0000
vn -0.9421 0.3353 -0.0000
vn -0.9552 0.2960 -0.0000
vn -0.9655 0.2604 -0.0000
vn -0.9743 0.2251 -0.0000
vn -0.9812 0.1929 -0.0000
vn -0.9870 0.1605 -0.0000
vn -0.9914 0.1306 -0.0000
vn -0.9950 0.1001 -0.0000
vn -0.9974 0.0716 -0.0000
vn -0.9990 0.0447 -0.0000
vn -0.9995 0.0307 -0.0000
vn 0.8421 -0.5393 -0.0000
vn 0.8581 -0.5134 -0.0000
vn 0.8847 -0.4661 -0.0000
vn 0.9075 -0.4201 -0.0000
vn 0.9269 -0.3754 -0.0000
vn 0.9421 -0.3353 -0.0000
vn 0.9552 -0.2960 -0.0000
vn 0.9655 -0.2604 -0.0000
vn 0.9743 -0.2251 -0.0000
vn 0.9812 -0.1929 -0.0000
vn 0.9870 -0.1605 -0.0000
vn 0.9914 -0.1306 -0.0000
vn 0.9950 -0.1001 -0.0000
vn 0.9974 -0.0716 -0.0000
vn 0.9990 -0.0447 -0.0000
vn 0.9995 -0.0307 -0.0000
vn 0.5393 0.8421 -0.0000
vn -0.0000 -0.0000 1.0000
vn -0.0000 -0.0000 -1.0000
vn -0.0307 -0.9995 -0.0000
vt 0.000000 1.000000
vt 0.000000 0.000000
vt 0.062500 0.000000
vt 0.062500 1.000000
vt 0.125000 0.000000
vt 0.125000 1.000000
vt 0.187500 0.000000
vt 0.187500 1.000000
vt 0.250000 0.000000
vt 0.250000 1.000000
vt 0.312500 0.000000
vt 0.312500 1.000000
vt 0.375000 0.000000
vt 0.375000 1.000000
vt 0.437500 0.000000
vt 0.437500 1.000000
vt 0.500000 0.000000
vt 0.500000 1.000000
vt 0.562500 0.000000
vt 0.562500 1.000000
vt 0.625000 0.000000
vt 0.625000 1.000000
vt 0.687500 0.000000
vt 0.687500 1.000000
vt 0.750000 0.000000
vt 0.750000 1.000000
vt 0.812500 0.000000
vt 0.812500 1.000000
vt 0.875000 0.000000
vt 0.875000 1.000000
vt 0.937500 0.000000
vt 0.937500 1.000000
vt 1.000000 0.000000
vt 1.000000 1.000000
s 0
f 2/1/1 1/2/1 3/3/1 4/4/1
f 4/4/2 3/3/2 5/5/2 6/6/2
f 6/6/3 5/5/3 7/7/3 8/8/3
f 8/8/4 7/7/4 9/9/4 10/10/4
f 10/10/5 9/9/5 11/11/5 12/12/5
f 12/12/6 11/11/6 13/13/6 14/14/6
f 14/14/7 13/13/7 15/15/7 16/16/7
f 16/16/8 15/15/8 17/17/8 18/18/8
f 18/18/9 17/17/9 19/19/9 20/20/9
f 20/20/10 19/19/10 21/21/10 22/22/10
f 22/22/11 21/21/11 23/23/11 24/24/11
f 24/24/12 23/23/12 25/25/12 26/26/12
f 26/26/13 25/25/13 27/27/13 28/28/13
f 28/28/14 27/27/14 29/29/14 30/30/14
f 30/30/15 29/29/15 31/31/15 32/32/15
f 32/32/16 31/31/16 33/33/16 34/34/16
f 36/1/17 38/4/17 37/3/17 35/2/17
f 38/4/18 40/6/18 39/5/18 37/3/18
f 40/6/19 42/8/19 41/7/19 39/5/19
f 42/8/20 44/10/20 43/9/20 41/7/20
f 44/10/21 46/12/21 45/11/21 43/9/21
f 46/12/22 48/14/22 47/13/22 45/11/22
f 48/14/23 50/16/23 49/15/23 47/13/23
f 50/16/24 52/18/24 51/17/24 49/15/24
f 52/18/25 54/20/25 53/19/25 51/17/25
f 54/20/26 56/22/26 55/21/26 53/19/26
f 56/22/27 58/24/27 57/23/27 55/21/27
f 58/24/28 60/26/28 59/25/28 57/23/28
f 60/26/29 62/28/29 61/27/29 59/25/29
f 62/28/30 64/30/30 63/29/30 61/27/30
f 64/30/31 66/32/31 65/31/31 63/29/31
f 66/32/32 68/34/32 67/33/32 65/31/32
f 2/1/33 36/1/33 35/2/33 1/2/33
f 4/4/34 38/4/34 36/1/34 2/1/34
f 1/2/35 35/2/35 37/3/35 3/3/35
f 6/6/34 40/6/34 38/4/34 4/4/34
f 3/3/35 37/3/35 39/5/35 5/5/35
f 8/8/34 42/8/34 40/6/34 6/6/34
f 5/5/35 39/5/35 41/7/35 7/7/35
f 10/10/34 44/10/34 42/8/34 8/8/34
f 7/7/35 41/7/35 43/9/35 9/9/35
f 12/12/34 46/12/34 44/10/34 10/10/34
f 9/9/35 43/9/35 45/11/35 11/11/35
f 14/14/34 48/14/34 46/12/34 12/12/34
f 11/11/35 45/11/35 47/13/35 13/13/35
f 16/16/34 50/16/34 48/14/34 14/14/34
f 13/13/35 47/13/35 49/15/35 15/15/35
f 18/18/34 52/18/34 50/16/34 16/16/34
f 15/15/35 49/15/35 51/17/35 17/17/35
f 20/20/34 54/20/34 52/18/34 18/18/34
f 17/17/35 51/17/35 53/19/35 19/19/35
f 22/22/34 56/22/34 54/20/34 20/20/34
f 19/19/35 53/19/35 55/21/35 21/21/35
f 24/24/34 58/24/34 56/22/34 22/22/34
f 21/21/35 55/21/35 57/23/35 23/23/35
f 26/26/34 60/26/34 58/24/34 24/24/34
f 23/23/35 57/23/35 59/25/35 25/25/35
f 28/28/34 62/28/34 60/26/34 26/26/34
f 25/25/35 59/25/35 61/27/35 27/27/35
f 30/30/34 64/30/34 62/28/34 28/28/34
f 27/27/35 61/27/35 63/29/35 29/29/35
f 32/32/34 66/32/34 64/30/34 30/30/34
f 29/29/35 63/29/35 65/31/35 31/31/35
f 34/34/34 68/34/34 66/32/34 32/32/34
f 33/33/36 67/33/36 68/34/36 34/34/36
f 31/31/35 65/31/35 67/33/35 33/33/35
