# Blender 4.2.3 LTS
# www.blender.org
o 48_left_long_inner_circle.cs
v -11.999981 0.000108 -0.000002
v -11.999981 0.000107 5.999997
v -10.700051 2.029742 -0.000002
v -10.700053 2.029738 5.999998
v -9.430727 4.151455 0.000001
v -9.430729 4.151452 6.000000
v -8.220832 6.447794 0.000001
v -8.220832 6.447794 6.000000
v -7.077072 8.918292 0.000001
v -7.077072 8.918290 6.000000
v -6.007315 11.559694 0.000001
v -6.007315 11.559694 6.000000
v -5.012970 14.353831 0.000001
v -5.012970 14.353829 6.000000
v -4.101658 17.295095 0.000000
v -4.101658 17.295095 6.000000
v -3.273746 20.365061 -0.000001
v -3.273746 20.365061 6.000000
v -2.536464 23.555866 -0.000000
v -2.536464 23.555866 5.999999
v -1.889150 26.849134 -0.000001
v -1.889150 26.849134 5.999999
v -1.338521 30.234890 -0.000001
v -1.338521 30.234890 5.999999
v -0.882875 33.695103 -0.000001
v -0.882875 33.695103 5.999998
v -0.528321 37.217873 -0.000002
v -0.528321 37.217873 5.999997
v -0.272144 40.785831 -0.000003
v -0.272143 40.785831 5.999997
v -0.111169 44.385342 -0.000003
v -0.111169 44.385342 5.999996
v -0.000030 48.000000 -0.000004
v -0.000030 48.000000 5.999996
v -11.157891 -0.539229 -0.000002
v -11.157891 -0.539231 5.999997
v -9.849831 1.503316 -0.000002
v -9.849833 1.503311 5.999998
v -8.558974 3.661509 0.000001
v -8.558976 3.661506 6.000000
v -7.324448 6.004516 0.000001
v -7.324448 6.004516 6.000000
v -6.159631 8.520421 0.000001
v -6.159631 8.520419 6.000000
v -5.072603 11.204288 0.000001
v -5.072603 11.204288 6.000000
v -4.064106 14.038150 0.000001
v -4.064106 14.038148 6.000000
v -3.141139 17.016880 0.000000
v -3.141139 17.016880 6.000000
v -2.303668 20.122265 -0.000001
v -2.303668 20.122265 6.000000
v -1.558554 23.346838 -0.000000
v -1.558554 23.346838 5.999999
v -0.904889 26.672417 -0.000001
v -0.904889 26.672417 5.999999
v -0.349171 30.089334 -0.000001
v -0.349170 30.089334 5.999999
v 0.110448 33.579742 -0.000001
v 0.110448 33.579742 5.999998
v 0.467984 37.131985 -0.000002
v 0.467984 37.131985 5.999997
v 0.726164 40.727680 -0.000003
v 0.726164 40.727680 5.999997
v 0.888120 44.347637 -0.000003
v 0.888120 44.347637 5.999996
v 0.999497 47.969269 -0.000004
v 0.999498 47.969269 5.999996
vn -0.8421 0.5393 -0.0000
vn -0.8582 0.5134 -0.0000
vn -0.8847 0.4661 -0.0000
vn -0.9075 0.4201 -0.0000
vn -0.9269 0.3754 -0.0000
vn -0.9421 0.3353 -0.0000
vn -0.9552 0.2960 -0.0000
vn -0.9655 0.2604 -0.0000
vn -0.9743 0.2251 -0.0000
vn -0.9812 0.1929 -0.0000
vn -0.9870 0.1605 -0.0000
vn -0.9914 0.1306 -0.0000
vn -0.9950 0.1001 -0.0000
vn -0.9974 0.0716 -0.0000
vn -0.9990 0.0447 -0.0000
vn -0.9995 0.0307 -0.0000
vn 0.8421 -0.5393 -0.0000
vn 0.8582 -0.5133 -0.0000
vn 0.8847 -0.4662 -0.0000
vn 0.9075 -0.4201 -0.0000
vn 0.9269 -0.3754 -0.0000
vn 0.9421 -0.3353 -0.0000
vn 0.9552 -0.2960 -0.0000
vn 0.9655 -0.2604 -0.0000
vn 0.9743 -0.2251 -0.0000
vn 0.9812 -0.1929 -0.0000
vn 0.9870 -0.1605 -0.0000
vn 0.9914 -0.1306 -0.0000
vn 0.9950 -0.1001 -0.0000
vn 0.9974 -0.0716 -0.0000
vn 0.9990 -0.0447 -0.0000
vn 0.9995 -0.0307 -0.0000
vn -0.5393 -0.8421 -0.0000
vn -0.0000 -0.0000 1.0000
vn -0.0000 -0.0000 -1.0000
vn 0.0307 0.9995 -0.0000
vt 0.000000 1.000000
vt 0.062500 1.000000
vt 0.062500 0.000000
vt 0.000000 0.000000
vt 0.125000 1.000000
vt 0.125000 0.000000
vt 0.187500 1.000000
vt 0.187500 0.000000
vt 0.250000 1.000000
vt 0.250000 0.000000
vt 0.312500 1.000000
vt 0.312500 0.000000
vt 0.375000 1.000000
vt 0.375000 0.000000
vt 0.437500 1.000000
vt 0.437500 0.000000
vt 0.500000 1.000000
vt 0.500000 0.000000
vt 0.562500 1.000000
vt 0.562500 0.000000
vt 0.625000 1.000000
vt 0.625000 0.000000
vt 0.687500 1.000000
vt 0.687500 0.000000
vt 0.750000 1.000000
vt 0.750000 0.000000
vt 0.812500 1.000000
vt 0.812500 0.000000
vt 0.875000 1.000000
vt 0.875000 0.000000
vt 0.937500 1.000000
vt 0.937500 0.000000
vt 1.000000 1.000000
vt 1.000000 0.000000
s 0
f 2/1/1 4/2/1 3/3/1 1/4/1
f 4/2/2 6/5/2 5/6/2 3/3/2
f 6/5/3 8/7/3 7/8/3 5/6/3
f 8/7/4 10/9/4 9/10/4 7/8/4
f 10/9/5 12/11/5 11/12/5 9/10/5
f 12/11/6 14/13/6 13/14/6 11/12/6
f 14/13/7 16/15/7 15/16/7 13/14/7
f 16/15/8 18/17/8 17/18/8 15/16/8
f 18/17/9 20/19/9 19/20/9 17/18/9
f 20/19/10 22/21/10 21/22/10 19/20/10
f 22/21/11 24/23/11 23/24/11 21/22/11
f 24/23/12 26/25/12 25/26/12 23/24/12
f 26/25/13 28/27/13 27/28/13 25/26/13
f 28/27/14 30/29/14 29/30/14 27/28/14
f 30/29/15 32/31/15 31/32/15 29/30/15
f 32/31/16 34/33/16 33/34/16 31/32/16
f 36/1/17 35/4/17 37/3/17 38/2/17
f 38/2/18 37/3/18 39/6/18 40/5/18
f 40/5/19 39/6/19 41/8/19 42/7/19
f 42/7/20 41/8/20 43/10/20 44/9/20
f 44/9/21 43/10/21 45/12/21 46/11/21
f 46/11/22 45/12/22 47/14/22 48/13/22
f 48/13/23 47/14/23 49/16/23 50/15/23
f 50/15/24 49/16/24 51/18/24 52/17/24
f 52/17/25 51/18/25 53/20/25 54/19/25
f 54/19/26 53/20/26 55/22/26 56/21/26
f 56/21/27 55/22/27 57/24/27 58/23/27
f 58/23/28 57/24/28 59/26/28 60/25/28
f 60/25/29 59/26/29 61/28/29 62/27/29
f 62/27/30 61/28/30 63/30/30 64/29/30
f 64/29/31 63/30/31 65/32/31 66/31/31
f 66/31/32 65/32/32 67/34/32 68/33/32
f 2/1/33 1/4/33 35/4/33 36/1/33
f 4/2/34 2/1/34 36/1/34 38/2/34
f 1/4/35 3/3/35 37/3/35 35/4/35
f 6/5/34 4/2/34 38/2/34 40/5/34
f 3/3/35 5/6/35 39/6/35 37/3/35
f 8/7/34 6/5/34 40/5/34 42/7/34
f 5/6/35 7/8/35 41/8/35 39/6/35
f 10/9/34 8/7/34 42/7/34 44/9/34
f 7/8/35 9/10/35 43/10/35 41/8/35
f 12/11/34 10/9/34 44/9/34 46/11/34
f 9/10/35 11/12/35 45/12/35 43/10/35
f 14/13/34 12/11/34 46/11/34 48/13/34
f 11/12/35 13/14/35 47/14/35 45/12/35
f 16/15/34 14/13/34 48/13/34 50/15/34
f 13/14/35 15/16/35 49/16/35 47/14/35
f 18/17/34 16/15/34 50/15/34 52/17/34
f 15/16/35 17/18/35 51/18/35 49/16/35
f 20/19/34 18/17/34 52/17/34 54/19/34
f 17/18/35 19/20/35 53/20/35 51/18/35
f 22/21/34 20/19/34 54/19/34 56/21/34
f 19/20/35 21/22/35 55/22/35 53/20/35
f 24/23/34 22/21/34 56/21/34 58/23/34
f 21/22/35 23/24/35 57/24/35 55/22/35
f 26/25/34 24/23/34 58/23/34 60/25/34
f 23/24/35 25/26/35 59/26/35 57/24/35
f 28/27/34 26/25/34 60/25/34 62/27/34
f 25/26/35 27/28/35 61/28/35 59/26/35
f 30/29/34 28/27/34 62/27/34 64/29/34
f 27/28/35 29/30/35 63/30/35 61/28/35
f 32/31/34 30/29/34 64/29/34 66/31/34
f 29/30/35 31/32/35 65/32/35 63/30/35
f 34/33/34 32/31/34 66/31/34 68/33/34
f 33/34/36 34/33/36 68/33/36 67/34/36
f 31/32/35 33/34/35 67/34/35 65/32/35
