# Blender 4.2.4 LTS
# www.blender.org
o gold_coin
v 0.230872 0.432299 0.100000
v 0.230872 0.432299 -0.100000
v 0.230872 -0.397555 0.100000
v 0.230872 -0.397555 -0.100000
v 0.238532 0.445565 0.087812
v 0.238532 0.445565 -0.087812
v 0.238532 -0.410821 0.087812
v 0.238532 -0.410821 -0.087812
v 0.241314 0.450385 0.064041
v 0.241314 0.450385 -0.064041
v 0.241314 -0.415641 0.064041
v 0.241314 -0.415641 -0.064041
v 0.406241 0.256930 0.100000
v 0.406241 0.256930 -0.100000
v 0.406241 -0.222186 0.100000
v 0.406241 -0.222186 -0.100000
v 0.419507 0.264590 0.087812
v 0.419507 0.264590 -0.087812
v 0.419507 -0.229846 0.087812
v 0.419507 -0.229846 -0.087812
v 0.424327 0.267372 0.064041
v 0.424327 0.267372 -0.064041
v 0.424327 -0.232628 0.064041
v 0.424327 -0.232628 -0.064041
v 0.470430 0.017372 0.100000
v 0.470430 0.017372 -0.100000
v 0.485749 0.017372 0.087812
v 0.485749 0.017372 -0.087812
v 0.491314 0.017372 0.064041
v 0.491314 0.017372 -0.064041
v -0.008686 0.496488 0.100000
v -0.008686 0.496488 -0.100000
v -0.008686 0.511807 0.087812
v -0.008686 0.511807 -0.087812
v -0.008686 -0.461744 0.100000
v -0.008686 -0.461744 -0.100000
v -0.008686 -0.477063 0.087812
v -0.008686 -0.477063 -0.087812
v -0.008686 0.517372 0.064041
v -0.008686 0.517372 -0.064041
v -0.008686 -0.482628 0.064041
v -0.008686 -0.482628 -0.064041
v -0.248244 0.432299 0.100000
v -0.248244 0.432299 -0.100000
v -0.248244 -0.397555 0.100000
v -0.248244 -0.397555 -0.100000
v -0.255904 0.445565 0.087812
v -0.255904 0.445565 -0.087812
v -0.255904 -0.410821 0.087812
v -0.255904 -0.410821 -0.087812
v -0.258686 0.450385 0.064041
v -0.258686 0.450385 -0.064041
v -0.258686 -0.415641 0.064041
v -0.258686 -0.415641 -0.064041
v -0.423613 0.256930 0.100000
v -0.423613 0.256930 -0.100000
v -0.423613 -0.222186 0.100000
v -0.423613 -0.222186 -0.100000
v -0.436879 0.264590 0.087812
v -0.436879 0.264590 -0.087812
v -0.436879 -0.229846 0.087812
v -0.436879 -0.229846 -0.087812
v -0.441699 0.267372 0.064041
v -0.441699 0.267372 -0.064041
v -0.441699 -0.232628 0.064041
v -0.441699 -0.232628 -0.064041
v -0.487802 0.017372 0.100000
v -0.487802 0.017372 -0.100000
v -0.503121 0.017372 0.087812
v -0.503121 0.017372 -0.087812
v -0.508686 0.017372 0.064041
v -0.508686 0.017372 -0.064041
vn -0.9936 -0.0000 0.1126
vn -0.8605 0.4968 0.1126
vn -0.8605 0.4968 -0.1126
vn -0.9936 -0.0000 -0.1126
vn 0.4968 0.8605 0.1126
vn 0.8605 0.4968 0.1126
vn 0.8605 0.4968 -0.1126
vn 0.4968 0.8605 -0.1126
vn -0.8605 -0.4968 0.1126
vn -0.8605 -0.4968 -0.1126
vn 0.9936 -0.0000 0.1126
vn 0.9936 -0.0000 -0.1126
vn -0.4968 -0.8605 0.1126
vn -0.4968 -0.8605 -0.1126
vn 0.4968 -0.8605 0.1126
vn -0.0000 -0.9936 0.1126
vn -0.0000 -0.9936 -0.1126
vn 0.4968 -0.8605 -0.1126
vn -0.0000 0.8592 -0.5117
vn 0.4296 0.7441 -0.5117
vn 0.1884 0.3264 -0.9263
vn -0.0000 0.3769 -0.9263
vn -0.4968 0.8605 0.1126
vn -0.0000 0.9936 0.1126
vn -0.0000 0.9936 -0.1126
vn -0.4968 0.8605 -0.1126
vn 0.8605 -0.4968 0.1126
vn 0.8605 -0.4968 -0.1126
vn -0.0000 0.8592 0.5117
vn 0.4296 0.7441 0.5117
vn -0.0000 0.3769 0.9263
vn 0.1884 0.3264 0.9263
vn 0.7441 0.4296 0.5117
vn 0.8592 -0.0000 0.5117
vn 0.3264 0.1884 0.9263
vn 0.3769 -0.0000 0.9263
vn 0.7441 -0.4296 0.5117
vn 0.3264 -0.1884 0.9263
vn -0.4296 0.7441 0.5117
vn -0.1884 0.3264 0.9263
vn -0.7441 0.4296 0.5117
vn -0.3264 0.1884 0.9263
vn -0.8592 -0.0000 0.5117
vn -0.3769 -0.0000 0.9263
vn 0.4296 -0.7441 0.5117
vn -0.0000 -0.8592 0.5117
vn 0.1884 -0.3264 0.9263
vn -0.0000 -0.3769 0.9263
vn -0.4296 -0.7441 0.5117
vn -0.7440 -0.4296 0.5117
vn -0.1884 -0.3264 0.9263
vn -0.3264 -0.1884 0.9263
vn 0.8592 -0.0000 -0.5117
vn 0.7441 0.4296 -0.5117
vn 0.3769 -0.0000 -0.9263
vn 0.3264 0.1884 -0.9263
vn 0.7441 -0.4296 -0.5117
vn 0.3264 -0.1884 -0.9263
vn -0.4296 0.7441 -0.5117
vn -0.1884 0.3264 -0.9263
vn -0.7441 0.4296 -0.5117
vn -0.3264 0.1884 -0.9263
vn -0.8592 -0.0000 -0.5117
vn -0.3769 -0.0000 -0.9263
vn -0.0000 -0.8592 -0.5117
vn 0.4296 -0.7441 -0.5117
vn -0.0000 -0.3769 -0.9263
vn 0.1884 -0.3264 -0.9263
vn -0.7440 -0.4296 -0.5117
vn -0.4296 -0.7441 -0.5117
vn -0.3264 -0.1884 -0.9263
vn -0.1884 -0.3264 -0.9263
vt 0.579882 0.053389
vt 0.589655 0.053389
vt 0.589674 0.129511
vt 0.579918 0.129511
vt 0.618812 0.053389
vt 0.628183 0.053389
vt 0.628217 0.129511
vt 0.618842 0.129511
vt 0.570114 0.053389
vt 0.570145 0.129511
vt 0.637445 0.053389
vt 0.637500 0.129511
vt 0.560357 0.053389
vt 0.560368 0.129511
vt 0.540522 0.053389
vt 0.550591 0.053389
vt 0.550608 0.129511
vt 0.540563 0.129511
vt 0.609350 0.144198
vt 0.618849 0.144198
vt 0.618854 0.159475
vt 0.609350 0.159475
vt 0.599549 0.053389
vt 0.609303 0.053389
vt 0.609346 0.129511
vt 0.599569 0.129511
vt 0.529824 0.053389
vt 0.529799 0.129511
vt 0.647093 0.053389
vt 0.647093 0.129511
vt 0.609305 0.039931
vt 0.618814 0.039931
vt 0.609302 0.026048
vt 0.618809 0.026048
vt 0.628183 0.039931
vt 0.637436 0.039931
vt 0.628177 0.026048
vt 0.637420 0.026048
vt 0.647016 0.039931
vt 0.646844 0.026048
vt 0.599550 0.039931
vt 0.599547 0.026048
vt 0.589655 0.039931
vt 0.589654 0.026048
vt 0.579882 0.039931
vt 0.579881 0.026048
vt 0.540532 0.039931
vt 0.550590 0.039931
vt 0.540543 0.026048
vt 0.550585 0.026048
vt 0.560357 0.039931
vt 0.570114 0.039931
vt 0.560355 0.026048
vt 0.570113 0.026048
vt 0.529903 0.039931
vt 0.530089 0.026048
vt 0.980514 0.694702
vt 0.879135 0.870295
vt 0.703541 0.971675
vt 0.500782 0.971675
vt 0.325189 0.870295
vt 0.223809 0.694701
vt 0.223809 0.491943
vt 0.325188 0.316349
vt 0.500782 0.214970
vt 0.703541 0.214970
vt 0.879135 0.316349
vt 0.980514 0.491943
vt 0.637498 0.144198
vt 0.628224 0.144198
vt 0.637492 0.159475
vt 0.628231 0.159475
vt 0.647025 0.144198
vt 0.646856 0.159475
vt 0.599572 0.144198
vt 0.599574 0.159475
vt 0.589675 0.144198
vt 0.589680 0.159475
vt 0.579918 0.144198
vt 0.579919 0.159475
vt 0.550612 0.144198
vt 0.540574 0.144198
vt 0.550612 0.159475
vt 0.540585 0.159475
vt 0.570147 0.144198
vt 0.560371 0.144198
vt 0.570147 0.159475
vt 0.560374 0.159475
vt 0.529882 0.144198
vt 0.530080 0.159475
vt 0.973477 0.692601
vt 0.873805 0.865238
vt 0.701168 0.964910
vt 0.501824 0.964910
vt 0.329186 0.865238
vt 0.229514 0.692601
vt 0.229514 0.493257
vt 0.329186 0.320620
vt 0.501824 0.220947
vt 0.701168 0.220947
vt 0.873805 0.320620
vt 0.973477 0.493257
s 1
f 71/1/1 63/2/2 64/3/3
f 71/1/1 64/3/3 72/4/4
f 9/5/5 21/6/6 22/7/7
f 9/5/5 22/7/7 10/8/8
f 65/9/9 71/1/1 72/4/4
f 65/9/9 72/4/4 66/10/10
f 21/6/6 29/11/11 30/12/12
f 21/6/6 30/12/12 22/7/7
f 53/13/13 65/9/9 66/10/10
f 53/13/13 66/10/10 54/14/14
f 11/15/15 41/16/16 42/17/17
f 11/15/15 42/17/17 12/18/18
f 34/19/19 6/20/20 2/21/21
f 34/19/19 2/21/21 32/22/22
f 51/23/23 39/24/24 40/25/25
f 51/23/23 40/25/25 52/26/26
f 42/17/17 41/16/16 53/13/13
f 42/17/17 53/13/13 54/14/14
f 23/27/27 11/15/15 12/18/18
f 23/27/27 12/18/18 24/28/28
f 29/11/11 23/29/27 24/30/28
f 29/11/11 24/30/28 30/12/12
f 63/2/2 51/23/23 52/26/26
f 63/2/2 52/26/26 64/3/3
f 40/25/25 10/8/8 6/20/20
f 40/25/25 6/20/20 34/19/19
f 39/24/24 33/31/29 5/32/30
f 39/24/24 5/32/30 9/5/5
f 33/31/29 31/33/31 1/34/32
f 33/31/29 1/34/32 5/32/30
f 21/6/6 17/35/33 27/36/34
f 21/6/6 27/36/34 29/11/11
f 17/35/33 13/37/35 25/38/36
f 17/35/33 25/38/36 27/36/34
f 29/11/11 27/36/34 19/39/37
f 29/11/11 19/39/37 23/29/27
f 27/36/34 25/38/36 15/40/38
f 27/36/34 15/40/38 19/39/37
f 51/23/23 47/41/39 33/31/29
f 51/23/23 33/31/29 39/24/24
f 47/41/39 43/42/40 31/33/31
f 47/41/39 31/33/31 33/31/29
f 9/5/5 5/32/30 17/35/33
f 9/5/5 17/35/33 21/6/6
f 5/32/30 1/34/32 13/37/35
f 5/32/30 13/37/35 17/35/33
f 63/2/2 59/43/41 47/41/39
f 63/2/2 47/41/39 51/23/23
f 59/43/41 55/44/42 43/42/40
f 59/43/41 43/42/40 47/41/39
f 71/1/1 69/45/43 59/43/41
f 71/1/1 59/43/41 63/2/2
f 69/45/43 67/46/44 55/44/42
f 69/45/43 55/44/42 59/43/41
f 11/15/15 7/47/45 37/48/46
f 11/15/15 37/48/46 41/16/16
f 7/47/45 3/49/47 35/50/48
f 7/47/45 35/50/48 37/48/46
f 53/13/13 49/51/49 61/52/50
f 53/13/13 61/52/50 65/9/9
f 49/51/49 45/53/51 57/54/52
f 49/51/49 57/54/52 61/52/50
f 65/9/9 61/52/50 69/45/43
f 65/9/9 69/45/43 71/1/1
f 61/52/50 57/54/52 67/46/44
f 61/52/50 67/46/44 69/45/43
f 23/27/27 19/55/37 7/47/45
f 23/27/27 7/47/45 11/15/15
f 19/55/37 15/56/38 3/49/47
f 19/55/37 3/49/47 7/47/45
f 41/16/16 37/48/46 49/51/49
f 41/16/16 49/51/49 53/13/13
f 37/48/46 35/50/48 45/53/51
f 37/48/46 45/53/51 49/51/49
f 1/57/32 31/58/31 43/59/40
f 43/59/40 55/60/42 67/61/44
f 67/61/44 57/62/52 45/63/51
f 45/63/51 35/64/48 3/65/47
f 3/65/47 15/66/38 25/67/36
f 25/67/36 13/68/35 1/57/32
f 1/57/32 43/59/40 67/61/44
f 67/61/44 45/63/51 3/65/47
f 3/65/47 25/67/36 1/57/32
f 67/61/44 3/65/47 1/57/32
f 22/7/7 30/12/12 28/69/53
f 22/7/7 28/69/53 18/70/54
f 18/70/54 28/69/53 26/71/55
f 18/70/54 26/71/55 14/72/56
f 30/12/12 24/30/28 20/73/57
f 30/12/12 20/73/57 28/69/53
f 28/69/53 20/73/57 16/74/58
f 28/69/53 16/74/58 26/71/55
f 52/26/26 40/25/25 34/19/19
f 52/26/26 34/19/19 48/75/59
f 48/75/59 34/19/19 32/22/22
f 48/75/59 32/22/22 44/76/60
f 10/8/8 22/7/7 18/70/54
f 10/8/8 18/70/54 6/20/20
f 6/20/20 18/70/54 14/72/56
f 6/20/20 14/72/56 2/21/21
f 64/3/3 52/26/26 48/75/59
f 64/3/3 48/75/59 60/77/61
f 60/77/61 48/75/59 44/76/60
f 60/77/61 44/76/60 56/78/62
f 72/4/4 64/3/3 60/77/61
f 72/4/4 60/77/61 70/79/63
f 70/79/63 60/77/61 56/78/62
f 70/79/63 56/78/62 68/80/64
f 12/18/18 42/17/17 38/81/65
f 12/18/18 38/81/65 8/82/66
f 8/82/66 38/81/65 36/83/67
f 8/82/66 36/83/67 4/84/68
f 54/14/14 66/10/10 62/85/69
f 54/14/14 62/85/69 50/86/70
f 50/86/70 62/85/69 58/87/71
f 50/86/70 58/87/71 46/88/72
f 66/10/10 72/4/4 70/79/63
f 66/10/10 70/79/63 62/85/69
f 62/85/69 70/79/63 68/80/64
f 62/85/69 68/80/64 58/87/71
f 24/28/28 12/18/18 8/82/66
f 24/28/28 8/82/66 20/89/57
f 20/89/57 8/82/66 4/84/68
f 20/89/57 4/84/68 16/90/58
f 42/17/17 54/14/14 50/86/70
f 42/17/17 50/86/70 38/81/65
f 38/81/65 50/86/70 46/88/72
f 38/81/65 46/88/72 36/83/67
f 44/91/60 32/92/22 2/93/21
f 2/93/21 14/94/56 26/95/55
f 26/95/55 16/96/58 4/97/68
f 4/97/68 36/98/67 46/99/72
f 46/99/72 58/100/71 68/101/64
f 68/101/64 56/102/62 44/91/60
f 44/91/60 2/93/21 26/95/55
f 26/95/55 4/97/68 46/99/72
f 46/99/72 68/101/64 44/91/60
f 26/95/55 46/99/72 44/91/60
f 39/24/24 9/5/5 10/8/8
f 39/24/24 10/8/8 40/25/25
