# Blender 4.2.1 LTS
# www.blender.org
o 0.5-2_left_circle
v -0.000001 12.000002 0.000001
v -0.642316 10.962165 0.000000
v -1.230732 9.770452 0.000000
v -1.746759 8.411564 0.000000
v -2.181567 6.908753 0.000000
v -2.527717 5.287731 0.000000
v -2.779287 3.576234 0.000000
v -2.931971 1.803547 0.000000
v 0.000000 0.000001 0.000000
v -3.000000 0.000001 0.000000
v -0.324984 11.492593 0.000001
v -0.944791 10.388078 0.000000
v -1.498172 9.110100 0.000000
v -1.974588 7.676246 0.000000
v -2.365888 6.111050 0.000000
v -2.665375 4.441290 0.000000
v -2.867926 2.695539 0.000000
v -2.972215 0.903668 0.000000
v -0.000004 12.000002 2.000000
v -0.642319 10.962165 2.000000
v -1.230735 9.770452 2.000000
v -1.746761 8.411564 2.000000
v -2.181569 6.908753 2.000000
v -2.527719 5.287731 2.000000
v -2.779289 3.576234 2.000000
v -2.931973 1.803547 2.000000
v -0.000002 0.000001 2.000000
v -3.000003 0.000001 2.000000
v -0.324986 11.492593 2.000000
v -0.944794 10.388078 2.000000
v -1.498175 9.110100 2.000000
v -1.974590 7.676246 2.000000
v -2.365890 6.111050 2.000000
v -2.665377 4.441290 2.000000
v -2.867929 2.695539 2.000000
v -2.972217 0.903668 2.000000
vn -0.0000 -0.0000 -1.0000
vn -0.0000 -0.0000 1.0000
vn 1.0000 -0.0000 -0.0000
vn -0.9812 0.1929 -0.0000
vn -0.8421 0.5393 -0.0000
vn -0.9995 0.0307 -0.0000
vn -0.9743 0.2251 -0.0000
vn -0.9075 0.4201 -0.0000
vn -0.9990 0.0447 -0.0000
vn -0.9914 0.1306 -0.0000
vn -0.8847 0.4661 -0.0000
vn -0.9870 0.1605 -0.0000
vn -0.9421 0.3353 -0.0000
vn -0.9974 0.0716 -0.0000
vn -0.9269 0.3754 -0.0000
vn -0.9950 0.1001 -0.0000
vn -0.9655 0.2604 -0.0000
vn -0.0000 -1.0000 -0.0000
vn -0.9552 0.2960 -0.0000
vn -0.8582 0.5134 -0.0000
vt 0.750000 0.497493
vt 1.000000 0.500000
vt 0.997861 0.467369
vt 0.995723 0.434737
vt 0.989343 0.402664
vt 0.982963 0.370591
vt 0.972451 0.339624
vt 0.961940 0.308658
vt 0.947476 0.279329
vt 0.933013 0.250000
vt 0.914845 0.222810
vt 0.896677 0.195619
vt 0.875115 0.171033
vt 0.853554 0.146447
vt 0.828967 0.124885
vt 0.804381 0.103323
vt 0.777190 0.085155
vt 0.750000 0.066987
s 0
usemtl Material
f 9/1/1 10/2/1 18/3/1 8/4/1 17/5/1 7/6/1 16/7/1 6/8/1 15/9/1 5/10/1 14/11/1 4/12/1 13/13/1 3/14/1 12/15/1 2/16/1 11/17/1 1/18/1
f 27/1/2 19/18/2 29/17/2 20/16/2 30/15/2 21/14/2 31/13/2 22/12/2 32/11/2 23/10/2 33/9/2 24/8/2 34/7/2 25/6/2 35/5/2 26/4/2 36/3/2 28/2/2
f 9/1/3 1/18/3 19/18/3 27/1/3
f 15/9/4 6/8/4 24/8/4 33/9/4
f 1/18/5 11/17/5 29/17/5 19/18/5
f 18/3/6 10/2/6 28/2/6 36/3/6
f 5/10/7 15/9/7 33/9/7 23/10/7
f 12/15/8 3/14/8 21/14/8 30/15/8
f 8/4/9 18/3/9 36/3/9 26/4/9
f 16/7/10 7/6/10 25/6/10 34/7/10
f 2/16/11 12/15/11 30/15/11 20/16/11
f 6/8/12 16/7/12 34/7/12 24/8/12
f 13/13/13 4/12/13 22/12/13 31/13/13
f 17/5/14 8/4/14 26/4/14 35/5/14
f 3/14/15 13/13/15 31/13/15 21/14/15
f 7/6/16 17/5/16 35/5/16 25/6/16
f 14/11/17 5/10/17 23/10/17 32/11/17
f 10/2/18 9/1/18 27/1/18 28/2/18
f 4/12/19 14/11/19 32/11/19 22/12/19
f 11/17/20 2/16/20 20/16/20 29/17/20
