# Blender 4.2.1 LTS
# www.blender.org
o 1-2_right_curve
v 6.000001 0.000003 1.998000
v 0.000000 -0.000000 1.998000
v -0.000007 12.000002 1.998002
v 5.779799 2.450818 1.998001
v 0.289899 9.549187 1.998002
v 4.339452 4.952446 1.998001
v 1.678222 7.047557 1.998001
v 0.029010 11.399207 1.998002
v 0.075410 10.793650 1.998002
v 0.156579 10.178564 1.998002
v 0.492533 8.904723 1.998002
v 0.780760 8.260262 1.998002
v 1.170638 7.634853 1.998001
v 2.306020 6.509488 1.998001
v 3.002327 6.000002 1.998001
v 3.701890 5.490516 1.998001
v 4.862496 4.365151 1.998001
v 5.269455 3.739743 1.998001
v 5.571500 3.095281 1.998001
v 5.907103 1.821441 1.998001
v 5.972476 1.206355 1.998001
v 5.996559 0.600797 1.998001
v 6.000001 0.000003 0.000000
v 0.000000 0.000000 0.000000
v -0.000007 12.000002 0.000002
v 5.779799 2.450818 0.000001
v 0.289899 9.549187 0.000002
v 4.339452 4.952447 0.000001
v 1.678222 7.047557 0.000001
v 0.029010 11.399207 0.000002
v 0.075410 10.793650 0.000002
v 0.156579 10.178564 0.000002
v 0.492533 8.904723 0.000002
v 0.780760 8.260262 0.000002
v 1.170638 7.634853 0.000001
v 2.306020 6.509488 0.000001
v 3.002327 6.000003 0.000001
v 3.701890 5.490516 0.000001
v 4.862496 4.365151 0.000001
v 5.269455 3.739744 0.000001
v 5.571500 3.095281 0.000001
v 5.907103 1.821441 0.000001
v 5.972476 1.206355 0.000001
v 5.996559 0.600797 0.000000
v -0.000006 11.398395 0.000002
v -0.000006 10.785124 0.000002
v -0.000006 10.154969 0.000002
v -0.000005 9.482882 0.000002
v -0.000005 8.825518 0.000002
v -0.000005 8.139663 0.000002
v -0.000004 7.439988 0.000001
v -0.000004 6.707981 0.000001
v -0.000003 5.831584 0.000001
v -0.000003 4.903456 0.000001
v -0.000002 3.591024 0.000001
v -0.000001 2.320112 0.000000
v -0.000001 1.185344 0.000000
v -0.000006 11.398395 1.998002
v -0.000006 10.785124 1.998002
v -0.000006 10.154969 1.998002
v -0.000005 9.482882 1.998002
v -0.000005 8.825518 1.998002
v -0.000005 8.139663 1.998002
v -0.000004 7.439988 1.998002
v -0.000004 6.707981 1.998001
v -0.000003 5.831584 1.998001
v -0.000003 4.903455 1.998001
v -0.000002 3.591025 1.998001
v -0.000001 2.320112 1.998001
v -0.000001 1.185344 1.998000
v 5.675323 0.000003 0.000000
v 5.189127 0.000003 0.000000
v 4.381727 0.000002 0.000000
v 3.119524 0.000002 0.000000
v 1.550624 0.000001 0.000000
v 5.675323 0.000003 1.998000
v 5.189127 0.000003 1.998000
v 4.381727 0.000002 1.998000
v 3.119524 0.000001 1.998000
v 1.550623 0.000000 1.998000
vn -0.0000 -0.0000 1.0000
vn -0.0000 -0.0000 -1.0000
vn 0.7468 0.6651 -0.0000
vn 0.9129 0.4083 -0.0000
vn -0.0000 -1.0000 -0.0000
vn 0.8382 0.5454 -0.0000
vn 0.8486 0.5290 -0.0000
vn -1.0000 -0.0000 -0.0000
vn 0.9055 0.4244 -0.0000
vn 0.7566 0.6539 -0.0000
vn 0.9988 0.0482 -0.0000
vn 0.9515 0.3075 -0.0000
vn 0.6508 0.7593 -0.0000
vn 0.9971 0.0764 -0.0000
vn 0.9802 0.1983 -0.0000
vn 0.5905 0.8070 -0.0000
vn 0.9914 0.1308 -0.0000
vn 0.9944 0.1057 -0.0000
vn 0.5887 0.8083 -0.0000
vn 0.9783 0.2072 -0.0000
vn 0.9992 0.0397 -0.0000
vn 0.6450 0.7642 -0.0000
vn 0.9540 0.2999 -0.0000
vn 1.0000 0.0057 -0.0000
vt 0.500000 0.576876
vt 0.600022 0.600000
vt 0.575017 0.575000
vt 0.825009 0.825000
vt 0.800010 0.800000
vt 0.650020 0.650000
vt 0.625021 0.625000
vt 0.972944 1.000000
vt 1.000000 1.000000
vt 0.850007 0.850000
vt 0.675018 0.675000
vt 0.500000 0.950611
vt 0.500000 1.000000
vt 0.875006 0.875000
vt 0.700016 0.700000
vt 0.525006 0.525000
vt 0.500000 0.500000
vt 0.900004 0.900000
vt 0.725015 0.725000
vt 0.550011 0.550000
vt 0.925003 0.925000
vt 0.750013 0.750000
vt 0.950002 0.950000
vt 0.775012 0.775000
vt 0.975001 0.975000
vt 0.500000 0.550620
vt 0.500000 0.525067
vt 0.500000 0.604880
vt 0.500000 0.632270
vt 0.500000 0.660847
vt 0.500000 0.690001
vt 0.500000 0.720501
vt 0.500000 0.757017
vt 0.500000 0.795689
vt 0.500000 0.850374
vt 0.500000 0.903329
vt 0.500000 0.950611
vt 0.629219 1.000000
vt 0.759960 1.000000
vt 0.865144 1.000000
vt 0.932427 1.000000
vt 0.500000 0.850374
vt 0.500000 0.903329
s 0
usemtl Material
f 60/1/1 5/2/1 10/3/1
f 27/2/2 47/1/2 32/3/2
f 17/4/3 28/5/3 6/5/3
f 12/6/4 33/7/4 11/7/4
f 76/8/5 23/9/5 1/9/5
f 18/10/6 39/4/6 17/4/6
f 13/11/7 34/6/7 12/6/7
f 70/12/8 24/13/8 2/13/8
f 19/14/9 40/10/9 18/10/9
f 7/15/10 35/11/10 13/11/10
f 8/16/11 25/17/11 3/17/11
f 4/18/12 41/14/12 19/14/12
f 14/19/13 29/15/13 7/15/13
f 9/20/14 30/16/14 8/16/14
f 20/21/15 26/18/15 4/18/15
f 14/19/16 37/22/16 36/19/16
f 10/3/17 31/20/17 9/20/17
f 21/23/18 42/21/18 20/21/18
f 15/22/19 38/24/19 37/22/19
f 5/2/20 32/3/20 10/3/20
f 22/25/21 43/23/21 21/23/21
f 6/5/22 38/24/22 16/24/22
f 11/7/23 27/2/23 5/2/23
f 1/9/24 44/25/24 22/25/24
f 46/26/2 32/3/2 47/1/2
f 31/20/2 45/27/2 30/16/2
f 30/16/2 45/27/2 25/17/2
f 48/28/2 33/7/2 49/29/2
f 33/7/2 50/30/2 49/29/2
f 34/6/2 51/31/2 50/30/2
f 35/11/2 52/32/2 51/31/2
f 29/15/2 53/33/2 52/32/2
f 36/19/2 54/34/2 53/33/2
f 37/22/2 55/35/2 54/34/2
f 55/35/2 28/5/2 56/36/2
f 56/36/2 39/4/2 57/37/2
f 57/37/2 40/10/2 24/13/2
f 40/10/2 75/38/2 24/13/2
f 41/14/2 74/39/2 75/38/2
f 26/18/2 73/40/2 74/39/2
f 73/40/2 43/23/2 72/41/2
f 72/41/2 44/25/2 71/8/2
f 71/8/2 44/25/2 23/9/2
f 76/8/5 72/41/5 71/8/5
f 77/41/5 73/40/5 72/41/5
f 78/40/5 74/39/5 73/40/5
f 79/39/5 75/38/5 74/39/5
f 80/38/5 24/13/5 75/38/5
f 61/28/1 11/7/1 5/2/1
f 11/7/1 63/30/1 12/6/1
f 12/6/1 64/31/1 13/11/1
f 13/11/1 65/32/1 7/15/1
f 7/15/1 66/33/1 14/19/1
f 14/19/1 67/34/1 15/22/1
f 15/22/1 68/42/1 16/24/1
f 68/42/1 6/5/1 16/24/1
f 69/43/1 17/4/1 6/5/1
f 70/12/1 18/10/1 17/4/1
f 18/10/1 80/38/1 19/14/1
f 19/14/1 79/39/1 4/18/1
f 4/18/1 78/40/1 20/21/1
f 78/40/1 21/23/1 20/21/1
f 77/41/1 22/25/1 21/23/1
f 22/25/1 76/8/1 1/9/1
f 10/3/1 59/26/1 60/1/1
f 9/20/1 58/27/1 59/26/1
f 58/27/1 8/16/1 3/17/1
f 70/12/8 56/36/8 57/37/8
f 69/43/8 55/35/8 56/36/8
f 55/35/8 67/34/8 54/34/8
f 67/34/8 53/33/8 54/34/8
f 66/33/8 52/32/8 53/33/8
f 65/32/8 51/31/8 52/32/8
f 64/31/8 50/30/8 51/31/8
f 63/30/8 49/29/8 50/30/8
f 62/29/8 48/28/8 49/29/8
f 61/28/8 47/1/8 48/28/8
f 60/1/8 46/26/8 47/1/8
f 59/26/8 45/27/8 46/26/8
f 58/27/8 25/17/8 45/27/8
f 60/1/1 61/28/1 5/2/1
f 27/2/2 48/28/2 47/1/2
f 17/4/3 39/4/3 28/5/3
f 12/6/4 34/6/4 33/7/4
f 76/8/5 71/8/5 23/9/5
f 18/10/6 40/10/6 39/4/6
f 13/11/7 35/11/7 34/6/7
f 70/12/8 57/37/8 24/13/8
f 19/14/9 41/14/9 40/10/9
f 7/15/10 29/15/10 35/11/10
f 8/16/11 30/16/11 25/17/11
f 4/18/12 26/18/12 41/14/12
f 14/19/13 36/19/13 29/15/13
f 9/20/14 31/20/14 30/16/14
f 20/21/15 42/21/15 26/18/15
f 14/19/16 15/22/16 37/22/16
f 10/3/17 32/3/17 31/20/17
f 21/23/18 43/23/18 42/21/18
f 15/22/19 16/24/19 38/24/19
f 5/2/20 27/2/20 32/3/20
f 22/25/21 44/25/21 43/23/21
f 6/5/22 28/5/22 38/24/22
f 11/7/23 33/7/23 27/2/23
f 1/9/24 23/9/24 44/25/24
f 46/26/2 31/20/2 32/3/2
f 31/20/2 46/26/2 45/27/2
f 48/28/2 27/2/2 33/7/2
f 33/7/2 34/6/2 50/30/2
f 34/6/2 35/11/2 51/31/2
f 35/11/2 29/15/2 52/32/2
f 29/15/2 36/19/2 53/33/2
f 36/19/2 37/22/2 54/34/2
f 37/22/2 38/24/2 55/35/2
f 55/35/2 38/24/2 28/5/2
f 56/36/2 28/5/2 39/4/2
f 57/37/2 39/4/2 40/10/2
f 40/10/2 41/14/2 75/38/2
f 41/14/2 26/18/2 74/39/2
f 26/18/2 42/21/2 73/40/2
f 73/40/2 42/21/2 43/23/2
f 72/41/2 43/23/2 44/25/2
f 76/8/5 77/41/5 72/41/5
f 77/41/5 78/40/5 73/40/5
f 78/40/5 79/39/5 74/39/5
f 79/39/5 80/38/5 75/38/5
f 80/38/5 2/13/5 24/13/5
f 61/28/1 62/29/1 11/7/1
f 11/7/1 62/29/1 63/30/1
f 12/6/1 63/30/1 64/31/1
f 13/11/1 64/31/1 65/32/1
f 7/15/1 65/32/1 66/33/1
f 14/19/1 66/33/1 67/34/1
f 15/22/1 67/34/1 68/42/1
f 68/42/1 69/43/1 6/5/1
f 69/43/1 70/12/1 17/4/1
f 70/12/1 2/13/1 18/10/1
f 18/10/1 2/13/1 80/38/1
f 19/14/1 80/38/1 79/39/1
f 4/18/1 79/39/1 78/40/1
f 78/40/1 77/41/1 21/23/1
f 77/41/1 76/8/1 22/25/1
f 10/3/1 9/20/1 59/26/1
f 9/20/1 8/16/1 58/27/1
f 70/12/8 69/43/8 56/36/8
f 69/43/8 68/42/8 55/35/8
f 55/35/8 68/42/8 67/34/8
f 67/34/8 66/33/8 53/33/8
f 66/33/8 65/32/8 52/32/8
f 65/32/8 64/31/8 51/31/8
f 64/31/8 63/30/8 50/30/8
f 63/30/8 62/29/8 49/29/8
f 62/29/8 61/28/8 48/28/8
f 61/28/8 60/1/8 47/1/8
f 60/1/8 59/26/8 46/26/8
f 59/26/8 58/27/8 45/27/8
f 58/27/8 3/17/8 25/17/8
