# Blender 4.2.3 LTS
# www.blender.org
o 18-36_left_circle.cs
v -17.999989 -0.000006 0.050668
v -17.999989 -0.000005 6.050667
v -17.845997 4.698939 0.050668
v -17.845997 4.698939 6.050666
v -17.386658 9.317478 0.050667
v -17.386658 9.317478 6.050666
v -16.629824 13.776598 0.050666
v -16.629824 13.776598 6.050667
v -15.588450 17.999994 0.050666
v -15.588450 17.999994 6.050666
v -14.280355 21.915407 0.050667
v -14.280355 21.915407 6.050665
v -12.727920 25.455839 0.050666
v -12.727920 25.455839 6.050666
v -10.957705 28.560717 0.050666
v -10.957705 28.560717 6.050665
v -8.999999 31.176910 0.050665
v -8.999999 31.176910 6.050665
v -6.888303 33.259659 0.050665
v -6.888303 33.259659 6.050665
v -4.658742 34.773331 0.050665
v -4.658742 34.773331 6.050664
v -2.349470 35.692017 0.050665
v -2.349470 35.692017 6.050664
v 0.000000 36.000000 0.050665
v 0.000000 36.000000 6.050664
v -17.000525 -0.032759 0.050668
v -17.000525 -0.032759 6.050667
v -16.848171 4.633042 0.050668
v -16.848171 4.633042 6.050666
v -16.395573 9.184248 0.050667
v -16.395573 9.184248 6.050666
v -15.650750 13.573092 0.050666
v -15.650750 13.573092 6.050667
v -14.627975 17.721630 0.050666
v -14.627975 17.721630 6.050666
v -13.347247 21.555811 0.050667
v -13.347247 21.555811 6.050665
v -11.834415 25.006784 0.050666
v -11.834415 25.006784 6.050666
v -10.121404 28.012447 0.050666
v -10.121404 28.012447 6.050665
v -8.246453 30.519514 0.050665
v -8.246453 30.519514 6.050665
v -6.253724 32.486801 0.050665
v -6.253724 32.486801 6.050665
v -4.190297 33.889839 0.050665
v -4.190297 33.889839 6.050664
v -2.097722 34.724224 0.050665
v -2.097722 34.724224 6.050664
v 0.129974 35.008484 0.050665
v 0.129974 35.008484 6.050664
vn -0.9995 0.0328 -0.0000
vn -0.9951 0.0990 -0.0000
vn -0.9859 0.1673 -0.0000
vn -0.9709 0.2394 -0.0000
vn -0.9485 0.3169 -0.0000
vn -0.9158 0.4016 -0.0000
vn -0.8687 0.4953 -0.0000
vn -0.8007 0.5991 -0.0000
vn -0.7022 0.7120 -0.0000
vn -0.5617 0.8273 -0.0000
vn -0.3696 0.9292 -0.0000
vn -0.1300 0.9915 -0.0000
vn 0.9995 -0.0326 -0.0000
vn 0.9951 -0.0990 -0.0000
vn 0.9859 -0.1673 -0.0000
vn 0.9709 -0.2394 -0.0000
vn 0.9485 -0.3168 -0.0000
vn 0.9159 -0.4015 -0.0000
vn 0.8688 -0.4952 -0.0000
vn 0.8008 -0.5989 -0.0000
vn 0.7025 -0.7116 -0.0000
vn 0.5623 -0.8269 -0.0000
vn 0.3704 -0.9289 -0.0000
vn 0.1266 -0.9920 -0.0000
vn -0.0328 -0.9995 -0.0000
vn -0.0000 -0.0000 1.0000
vn -0.0000 -0.0000 -1.0000
vn 0.9915 0.1300 -0.0000
vt 0.000000 1.000000
vt 0.083333 1.000000
vt 0.083333 0.000000
vt 0.000000 0.000000
vt 0.166667 1.000000
vt 0.166667 0.000000
vt 0.250000 1.000000
vt 0.250000 0.000000
vt 0.333333 1.000000
vt 0.333333 0.000000
vt 0.416667 1.000000
vt 0.416667 0.000000
vt 0.500000 1.000000
vt 0.500000 0.000000
vt 0.583333 1.000000
vt 0.583333 0.000000
vt 0.666667 1.000000
vt 0.666667 0.000000
vt 0.750000 1.000000
vt 0.750000 0.000000
vt 0.833333 1.000000
vt 0.833333 0.000000
vt 0.916667 1.000000
vt 0.916667 0.000000
vt 1.000000 1.000000
vt 1.000000 0.000000
s 0
f 2/1/1 4/2/1 3/3/1 1/4/1
f 4/2/2 6/5/2 5/6/2 3/3/2
f 6/5/3 8/7/3 7/8/3 5/6/3
f 8/7/4 10/9/4 9/10/4 7/8/4
f 10/9/5 12/11/5 11/12/5 9/10/5
f 12/11/6 14/13/6 13/14/6 11/12/6
f 14/13/7 16/15/7 15/16/7 13/14/7
f 16/15/8 18/17/8 17/18/8 15/16/8
f 18/17/9 20/19/9 19/20/9 17/18/9
f 20/19/10 22/21/10 21/22/10 19/20/10
f 22/21/11 24/23/11 23/24/11 21/22/11
f 24/23/12 26/25/12 25/26/12 23/24/12
f 28/1/13 27/4/13 29/3/13 30/2/13
f 30/2/14 29/3/14 31/6/14 32/5/14
f 32/5/15 31/6/15 33/8/15 34/7/15
f 34/7/16 33/8/16 35/10/16 36/9/16
f 36/9/17 35/10/17 37/12/17 38/11/17
f 38/11/18 37/12/18 39/14/18 40/13/18
f 40/13/19 39/14/19 41/16/19 42/15/19
f 42/15/20 41/16/20 43/18/20 44/17/20
f 44/17/21 43/18/21 45/20/21 46/19/21
f 46/19/22 45/20/22 47/22/22 48/21/22
f 48/21/23 47/22/23 49/24/23 50/23/23
f 50/23/24 49/24/24 51/26/24 52/25/24
f 2/1/25 1/4/25 27/4/25 28/1/25
f 4/2/26 2/1/26 28/1/26 30/2/26
f 1/4/27 3/3/27 29/3/27 27/4/27
f 6/5/26 4/2/26 30/2/26 32/5/26
f 3/3/27 5/6/27 31/6/27 29/3/27
f 8/7/26 6/5/26 32/5/26 34/7/26
f 5/6/27 7/8/27 33/8/27 31/6/27
f 10/9/26 8/7/26 34/7/26 36/9/26
f 7/8/27 9/10/27 35/10/27 33/8/27
f 12/11/26 10/9/26 36/9/26 38/11/26
f 9/10/27 11/12/27 37/12/27 35/10/27
f 14/13/26 12/11/26 38/11/26 40/13/26
f 11/12/27 13/14/27 39/14/27 37/12/27
f 16/15/26 14/13/26 40/13/26 42/15/26
f 13/14/27 15/16/27 41/16/27 39/14/27
f 18/17/26 16/15/26 42/15/26 44/17/26
f 15/16/27 17/18/27 43/18/27 41/16/27
f 20/19/26 18/17/26 44/17/26 46/19/26
f 17/18/27 19/20/27 45/20/27 43/18/27
f 22/21/26 20/19/26 46/19/26 48/21/26
f 19/20/27 21/22/27 47/22/27 45/20/27
f 24/23/26 22/21/26 48/21/26 50/23/26
f 21/22/27 23/24/27 49/24/27 47/22/27
f 26/25/26 24/23/26 50/23/26 52/25/26
f 25/26/28 26/25/28 52/25/28 51/26/28
f 23/24/27 25/26/27 51/26/27 49/24/27
