# Blender 4.2.1 LTS
# www.blender.org
o 18-36_left_circle_cs
v -0.369228 36.472954 -1.999995
v -0.369230 36.472954 6.000006
v -2.326955 34.944504 -1.999995
v -2.326957 34.944504 6.000005
v -4.252992 33.334515 -1.999996
v -4.252995 33.334515 6.000004
v -6.095609 31.585890 -1.999997
v -6.095611 31.585886 6.000003
v -7.837893 29.704222 -1.999997
v -7.837895 29.704218 6.000002
v -9.466804 27.693254 -1.999999
v -9.466805 27.693251 6.000002
v -10.980230 25.566837 -2.000000
v -10.980232 25.566833 6.000001
v -12.366817 23.329313 -2.000000
v -12.366819 23.329309 6.000000
v -13.626024 20.994650 -2.000000
v -13.626026 20.994646 5.999999
v -14.747089 18.568855 -2.000003
v -14.747091 18.568851 6.000000
v -15.731051 16.065834 -2.000003
v -15.731053 16.065832 5.999999
v -16.567879 13.493130 -2.000003
v -16.567881 13.493128 5.999997
v -17.260183 10.864361 -2.000004
v -17.260183 10.864359 5.999997
v -17.798847 8.188499 -2.000004
v -17.798847 8.188498 5.999996
v -18.187801 5.480032 -2.000005
v -18.187801 5.480029 5.999996
v -18.431589 2.756143 -2.000006
v -18.431589 2.756141 5.999995
v -18.598869 0.036829 -2.000006
v -18.598869 0.036826 5.999994
v 0.246134 35.684711 -1.999995
v 0.246131 35.684711 6.000006
v -1.698545 34.166622 -1.999995
v -1.698547 34.166622 6.000005
v -3.587840 32.587807 -1.999996
v -3.587842 32.587807 6.000004
v -5.384179 30.883133 -1.999997
v -5.384181 30.883129 6.000003
v -7.082067 29.049448 -1.999997
v -7.082069 29.049444 6.000002
v -8.670527 27.088324 -1.999999
v -8.670528 27.088320 6.000002
v -10.147436 25.013254 -2.000000
v -10.147438 25.013250 6.000001
v -11.501344 22.828358 -2.000000
v -11.501346 22.828354 6.000000
v -12.731650 20.547329 -2.000000
v -12.731652 20.547325 5.999999
v -13.827486 18.176008 -2.000003
v -13.827488 18.176004 6.000000
v -14.789811 15.728096 -2.000003
v -14.789813 15.728094 5.999999
v -15.608497 13.211021 -2.000003
v -15.608499 13.211020 5.999997
v -16.286081 10.638254 -2.000004
v -16.286081 10.638252 5.999997
v -16.813370 8.018693 -2.000005
v -16.813370 8.018691 5.999996
v -17.194511 5.364377 -2.000005
v -17.194511 5.364374 5.999995
v -17.434423 2.680903 -2.000006
v -17.434423 2.680901 5.999995
v -17.600754 -0.024550 -2.000006
v -17.600754 -0.024553 5.999994
vn -0.6154 0.7882 -0.0000
vn -0.6413 0.7672 -0.0000
vn -0.6884 0.7254 -0.0000
vn -0.7338 0.6794 -0.0000
vn -0.7771 0.6294 -0.0000
vn -0.8147 0.5799 -0.0000
vn -0.8500 0.5268 -0.0000
vn -0.8801 0.4747 -0.0000
vn -0.9078 0.4195 -0.0000
vn -0.9307 0.3659 -0.0000
vn -0.9510 0.3093 -0.0000
vn -0.9670 0.2547 -0.0000
vn -0.9803 0.1973 -0.0000
vn -0.9898 0.1421 -0.0000
vn -0.9960 0.0891 -0.0000
vn -0.9981 0.0614 -0.0000
vn 0.6153 -0.7883 -0.0000
vn 0.6412 -0.7673 -0.0000
vn 0.6884 -0.7254 -0.0000
vn 0.7338 -0.6794 -0.0000
vn 0.7771 -0.6294 -0.0000
vn 0.8147 -0.5799 -0.0000
vn 0.8500 -0.5267 -0.0000
vn 0.8801 -0.4747 -0.0000
vn 0.9078 -0.4195 -0.0000
vn 0.9307 -0.3659 -0.0000
vn 0.9510 -0.3093 -0.0000
vn 0.9670 -0.2547 -0.0000
vn 0.9803 -0.1973 -0.0000
vn 0.9898 -0.1421 -0.0000
vn 0.9960 -0.0890 -0.0000
vn 0.9981 -0.0614 -0.0000
vn 0.7882 0.6154 -0.0000
vn -0.0000 -0.0000 1.0000
vn -0.0000 -0.0000 -1.0000
vn -0.0614 -0.9981 -0.0000
vt 0.000000 1.000000
vt 0.000000 0.000000
vt 0.062500 0.000000
vt 0.062500 1.000000
vt 0.125000 0.000000
vt 0.125000 1.000000
vt 0.187500 0.000000
vt 0.187500 1.000000
vt 0.250000 0.000000
vt 0.250000 1.000000
vt 0.312500 0.000000
vt 0.312500 1.000000
vt 0.375000 0.000000
vt 0.375000 1.000000
vt 0.437500 0.000000
vt 0.437500 1.000000
vt 0.500000 0.000000
vt 0.500000 1.000000
vt 0.562500 0.000000
vt 0.562500 1.000000
vt 0.625000 0.000000
vt 0.625000 1.000000
vt 0.687500 0.000000
vt 0.687500 1.000000
vt 0.750000 0.000000
vt 0.750000 1.000000
vt 0.812500 0.000000
vt 0.812500 1.000000
vt 0.875000 0.000000
vt 0.875000 1.000000
vt 0.937500 0.000000
vt 0.937500 1.000000
vt 1.000000 0.000000
vt 1.000000 1.000000
s 0
f 2/1/1 1/2/1 3/3/1 4/4/1
f 4/4/2 3/3/2 5/5/2 6/6/2
f 6/6/3 5/5/3 7/7/3 8/8/3
f 8/8/4 7/7/4 9/9/4 10/10/4
f 10/10/5 9/9/5 11/11/5 12/12/5
f 12/12/6 11/11/6 13/13/6 14/14/6
f 14/14/7 13/13/7 15/15/7 16/16/7
f 16/16/8 15/15/8 17/17/8 18/18/8
f 18/18/9 17/17/9 19/19/9 20/20/9
f 20/20/10 19/19/10 21/21/10 22/22/10
f 22/22/11 21/21/11 23/23/11 24/24/11
f 24/24/12 23/23/12 25/25/12 26/26/12
f 26/26/13 25/25/13 27/27/13 28/28/13
f 28/28/14 27/27/14 29/29/14 30/30/14
f 30/30/15 29/29/15 31/31/15 32/32/15
f 32/32/16 31/31/16 33/33/16 34/34/16
f 36/1/17 38/4/17 37/3/17 35/2/17
f 38/4/18 40/6/18 39/5/18 37/3/18
f 40/6/19 42/8/19 41/7/19 39/5/19
f 42/8/20 44/10/20 43/9/20 41/7/20
f 44/10/21 46/12/21 45/11/21 43/9/21
f 46/12/22 48/14/22 47/13/22 45/11/22
f 48/14/23 50/16/23 49/15/23 47/13/23
f 50/16/24 52/18/24 51/17/24 49/15/24
f 52/18/25 54/20/25 53/19/25 51/17/25
f 54/20/26 56/22/26 55/21/26 53/19/26
f 56/22/27 58/24/27 57/23/27 55/21/27
f 58/24/28 60/26/28 59/25/28 57/23/28
f 60/26/29 62/28/29 61/27/29 59/25/29
f 62/28/30 64/30/30 63/29/30 61/27/30
f 64/30/31 66/32/31 65/31/31 63/29/31
f 66/32/32 68/34/32 67/33/32 65/31/32
f 2/1/33 36/1/33 35/2/33 1/2/33
f 4/4/34 38/4/34 36/1/34 2/1/34
f 1/2/35 35/2/35 37/3/35 3/3/35
f 6/6/34 40/6/34 38/4/34 4/4/34
f 3/3/35 37/3/35 39/5/35 5/5/35
f 8/8/34 42/8/34 40/6/34 6/6/34
f 5/5/35 39/5/35 41/7/35 7/7/35
f 10/10/34 44/10/34 42/8/34 8/8/34
f 7/7/35 41/7/35 43/9/35 9/9/35
f 12/12/34 46/12/34 44/10/34 10/10/34
f 9/9/35 43/9/35 45/11/35 11/11/35
f 14/14/34 48/14/34 46/12/34 12/12/34
f 11/11/35 45/11/35 47/13/35 13/13/35
f 16/16/34 50/16/34 48/14/34 14/14/34
f 13/13/35 47/13/35 49/15/35 15/15/35
f 18/18/34 52/18/34 50/16/34 16/16/34
f 15/15/35 49/15/35 51/17/35 17/17/35
f 20/20/34 54/20/34 52/18/34 18/18/34
f 17/17/35 51/17/35 53/19/35 19/19/35
f 22/22/34 56/22/34 54/20/34 20/20/34
f 19/19/35 53/19/35 55/21/35 21/21/35
f 24/24/34 58/24/34 56/22/34 22/22/34
f 21/21/35 55/21/35 57/23/35 23/23/35
f 26/26/34 60/26/34 58/24/34 24/24/34
f 23/23/35 57/23/35 59/25/35 25/25/35
f 28/28/34 62/28/34 60/26/34 26/26/34
f 25/25/35 59/25/35 61/27/35 27/27/35
f 30/30/34 64/30/34 62/28/34 28/28/34
f 27/27/35 61/27/35 63/29/35 29/29/35
f 32/32/34 66/32/34 64/30/34 30/30/34
f 29/29/35 63/29/35 65/31/35 31/31/35
f 34/34/34 68/34/34 66/32/34 32/32/34
f 33/33/36 67/33/36 68/34/36 34/34/36
f 31/31/35 65/31/35 67/33/35 33/33/35
