# Blender 4.2.3 LTS
# www.blender.org
o 9-18_left_long_circle.cs
v -9.000000 -0.000001 0.000002
v -9.000000 -0.000001 6.000003
v -8.916645 1.355498 0.000003
v -8.916645 1.355498 6.000002
v -8.795914 2.705318 0.000003
v -8.795914 2.705318 6.000002
v -8.603782 4.043306 0.000003
v -8.603782 4.043306 6.000002
v -8.337862 5.364347 0.000002
v -8.337862 5.364347 6.000002
v -7.996126 6.661932 0.000002
v -7.996126 6.661931 6.000003
v -7.583156 7.931594 0.000002
v -7.583155 7.931594 6.000002
v -7.097665 9.166571 0.000002
v -7.097665 9.166571 6.000002
v -6.544702 10.363126 0.000002
v -6.544702 10.363128 6.000002
v -5.923769 11.514367 0.000002
v -5.923768 11.514369 6.000002
v -5.240279 12.617342 0.000002
v -5.240279 12.617342 6.000001
v -4.494521 13.665146 0.000002
v -4.494520 13.665146 6.000001
v -3.692201 14.655678 0.000002
v -3.692201 14.655678 6.000001
v -2.834378 15.582117 0.000002
v -2.834378 15.582117 6.000001
v -1.926953 16.443247 0.000002
v -1.926952 16.443247 6.000001
v -0.974958 17.238890 0.000002
v -0.974956 17.238890 6.000001
v -0.000008 18.000004 0.000002
v -0.000008 18.000004 6.000001
v -8.001885 -0.061379 0.000002
v -8.001885 -0.061379 6.000003
v -7.919479 1.280259 0.000003
v -7.919479 1.280258 6.000002
v -7.802624 2.589664 0.000003
v -7.802624 2.589664 6.000002
v -7.618304 3.873500 0.000003
v -7.618304 3.873501 6.000002
v -7.363759 5.138241 0.000002
v -7.363759 5.138241 6.000002
v -7.036744 6.379823 0.000002
v -7.036744 6.379822 6.000003
v -6.641915 7.593856 0.000002
v -6.641914 7.593856 6.000002
v -6.178062 8.773723 0.000002
v -6.178062 8.773723 6.000002
v -5.650328 9.915806 0.000002
v -5.650328 9.915808 6.000002
v -5.058295 11.013413 0.000002
v -5.058294 11.013415 6.000002
v -4.407485 12.063759 0.000002
v -4.407485 12.063759 6.000001
v -3.698244 13.060214 0.000002
v -3.698243 13.060214 6.000001
v -2.936375 14.000905 0.000002
v -2.936375 14.000905 6.000001
v -2.122948 14.879360 0.000002
v -2.122947 14.879360 6.000001
v -1.261800 15.696540 0.000002
v -1.261799 15.696540 6.000001
v -0.346548 16.461006 0.000002
v -0.346547 16.461006 6.000001
v 0.615352 17.211758 0.000002
v 0.615353 17.211758 6.000001
vn -0.9981 0.0614 -0.0000
vn -0.9960 0.0891 -0.0000
vn -0.9898 0.1421 -0.0000
vn -0.9803 0.1973 -0.0000
vn -0.9670 0.2547 -0.0000
vn -0.9510 0.3093 -0.0000
vn -0.9307 0.3659 -0.0000
vn -0.9078 0.4195 -0.0000
vn -0.8801 0.4747 -0.0000
vn -0.8500 0.5267 -0.0000
vn -0.8147 0.5799 -0.0000
vn -0.7771 0.6294 -0.0000
vn -0.7338 0.6794 -0.0000
vn -0.6884 0.7254 -0.0000
vn -0.6413 0.7673 -0.0000
vn -0.6154 0.7882 -0.0000
vn 0.9981 -0.0613 -0.0000
vn 0.9960 -0.0889 -0.0000
vn 0.9899 -0.1421 -0.0000
vn 0.9803 -0.1973 -0.0000
vn 0.9670 -0.2547 -0.0000
vn 0.9510 -0.3093 -0.0000
vn 0.9307 -0.3659 -0.0000
vn 0.9078 -0.4195 -0.0000
vn 0.8801 -0.4747 -0.0000
vn 0.8500 -0.5267 -0.0000
vn 0.8147 -0.5799 -0.0000
vn 0.7771 -0.6294 -0.0000
vn 0.7337 -0.6794 -0.0000
vn 0.6883 -0.7254 -0.0000
vn 0.6411 -0.7675 -0.0000
vn 0.6153 -0.7883 -0.0000
vn -0.0614 -0.9981 -0.0000
vn -0.0000 -0.0000 1.0000
vn -0.0000 -0.0000 -1.0000
vn 0.7882 0.6154 -0.0000
vt 0.000000 1.000000
vt 0.062500 1.000000
vt 0.062500 0.000000
vt 0.000000 0.000000
vt 0.125000 1.000000
vt 0.125000 0.000000
vt 0.187500 1.000000
vt 0.187500 0.000000
vt 0.250000 1.000000
vt 0.250000 0.000000
vt 0.312500 1.000000
vt 0.312500 0.000000
vt 0.375000 1.000000
vt 0.375000 0.000000
vt 0.437500 1.000000
vt 0.437500 0.000000
vt 0.500000 1.000000
vt 0.500000 0.000000
vt 0.562500 1.000000
vt 0.562500 0.000000
vt 0.625000 1.000000
vt 0.625000 0.000000
vt 0.687500 1.000000
vt 0.687500 0.000000
vt 0.750000 1.000000
vt 0.750000 0.000000
vt 0.812500 1.000000
vt 0.812500 0.000000
vt 0.875000 1.000000
vt 0.875000 0.000000
vt 0.937500 1.000000
vt 0.937500 0.000000
vt 1.000000 1.000000
vt 1.000000 0.000000
s 0
f 2/1/1 4/2/1 3/3/1 1/4/1
f 4/2/2 6/5/2 5/6/2 3/3/2
f 6/5/3 8/7/3 7/8/3 5/6/3
f 8/7/4 10/9/4 9/10/4 7/8/4
f 10/9/5 12/11/5 11/12/5 9/10/5
f 12/11/6 14/13/6 13/14/6 11/12/6
f 14/13/7 16/15/7 15/16/7 13/14/7
f 16/15/8 18/17/8 17/18/8 15/16/8
f 18/17/9 20/19/9 19/20/9 17/18/9
f 20/19/10 22/21/10 21/22/10 19/20/10
f 22/21/11 24/23/11 23/24/11 21/22/11
f 24/23/12 26/25/12 25/26/12 23/24/12
f 26/25/13 28/27/13 27/28/13 25/26/13
f 28/27/14 30/29/14 29/30/14 27/28/14
f 30/29/15 32/31/15 31/32/15 29/30/15
f 32/31/16 34/33/16 33/34/16 31/32/16
f 36/1/17 35/4/17 37/3/17 38/2/17
f 38/2/18 37/3/18 39/6/18 40/5/18
f 40/5/19 39/6/19 41/8/19 42/7/19
f 42/7/20 41/8/20 43/10/20 44/9/20
f 44/9/21 43/10/21 45/12/21 46/11/21
f 46/11/22 45/12/22 47/14/22 48/13/22
f 48/13/23 47/14/23 49/16/23 50/15/23
f 50/15/24 49/16/24 51/18/24 52/17/24
f 52/17/25 51/18/25 53/20/25 54/19/25
f 54/19/26 53/20/26 55/22/26 56/21/26
f 56/21/27 55/22/27 57/24/27 58/23/27
f 58/23/28 57/24/28 59/26/28 60/25/28
f 60/25/29 59/26/29 61/28/29 62/27/29
f 62/27/30 61/28/30 63/30/30 64/29/30
f 64/29/31 63/30/31 65/32/31 66/31/31
f 66/31/32 65/32/32 67/34/32 68/33/32
f 2/1/33 1/4/33 35/4/33 36/1/33
f 4/2/34 2/1/34 36/1/34 38/2/34
f 1/4/35 3/3/35 37/3/35 35/4/35
f 6/5/34 4/2/34 38/2/34 40/5/34
f 3/3/35 5/6/35 39/6/35 37/3/35
f 8/7/34 6/5/34 40/5/34 42/7/34
f 5/6/35 7/8/35 41/8/35 39/6/35
f 10/9/34 8/7/34 42/7/34 44/9/34
f 7/8/35 9/10/35 43/10/35 41/8/35
f 12/11/34 10/9/34 44/9/34 46/11/34
f 9/10/35 11/12/35 45/12/35 43/10/35
f 14/13/34 12/11/34 46/11/34 48/13/34
f 11/12/35 13/14/35 47/14/35 45/12/35
f 16/15/34 14/13/34 48/13/34 50/15/34
f 13/14/35 15/16/35 49/16/35 47/14/35
f 18/17/34 16/15/34 50/15/34 52/17/34
f 15/16/35 17/18/35 51/18/35 49/16/35
f 20/19/34 18/17/34 52/17/34 54/19/34
f 17/18/35 19/20/35 53/20/35 51/18/35
f 22/21/34 20/19/34 54/19/34 56/21/34
f 19/20/35 21/22/35 55/22/35 53/20/35
f 24/23/34 22/21/34 56/21/34 58/23/34
f 21/22/35 23/24/35 57/24/35 55/22/35
f 26/25/34 24/23/34 58/23/34 60/25/34
f 23/24/35 25/26/35 59/26/35 57/24/35
f 28/27/34 26/25/34 60/25/34 62/27/34
f 25/26/35 27/28/35 61/28/35 59/26/35
f 30/29/34 28/27/34 62/27/34 64/29/34
f 27/28/35 29/30/35 63/30/35 61/28/35
f 32/31/34 30/29/34 64/29/34 66/31/34
f 29/30/35 31/32/35 65/32/35 63/30/35
f 34/33/34 32/31/34 66/31/34 68/33/34
f 33/34/36 34/33/36 68/33/36 67/34/36
f 31/32/35 33/34/35 67/34/35 65/32/35
