# Blender 4.2.3 LTS
# www.blender.org
o 9-18_left_circle.cs
v -9.000000 -0.000004 0.000000
v -9.000000 -0.000003 6.000000
v -8.923003 2.349467 -0.000000
v -8.923003 2.349468 6.000000
v -8.693333 4.658740 -0.000001
v -8.693333 4.658741 5.999999
v -8.314915 6.888298 -0.000001
v -8.314915 6.888299 5.999999
v -7.794229 8.999996 -0.000001
v -7.794229 8.999996 5.999999
v -7.140180 10.957702 -0.000002
v -7.140180 10.957702 5.999997
v -6.363960 12.727918 -0.000002
v -6.363960 12.727918 5.999998
v -5.478854 14.280355 -0.000002
v -5.478854 14.280355 5.999997
v -4.500000 15.588453 -0.000003
v -4.500000 15.588453 5.999997
v -3.444150 16.629827 -0.000003
v -3.444153 16.629824 5.999997
v -2.329369 17.386663 -0.000002
v -2.329373 17.386660 5.999999
v -1.174736 17.846004 -0.000001
v -1.174736 17.846004 5.999998
v 0.000000 17.999996 -0.000002
v -0.000000 17.999996 5.999999
v -8.000537 -0.032758 0.000000
v -8.000537 -0.032757 6.000000
v -7.925177 2.283570 -0.000000
v -7.925177 2.283571 6.000000
v -7.702248 4.525509 -0.000001
v -7.702248 4.525511 5.999999
v -7.335841 6.684792 -0.000001
v -7.335841 6.684793 5.999999
v -6.833753 8.721632 -0.000001
v -6.833753 8.721632 5.999999
v -6.207072 10.598105 -0.000002
v -6.207072 10.598105 5.999997
v -5.470456 12.278863 -0.000002
v -5.470456 12.278863 5.999998
v -4.642552 13.732086 -0.000002
v -4.642552 13.732085 5.999997
v -3.746454 14.931058 -0.000003
v -3.746454 14.931058 5.999997
v -2.809572 15.856969 -0.000003
v -2.809574 15.856965 5.999997
v -1.860924 16.503172 -0.000002
v -1.860927 16.503168 5.999999
v -0.922987 16.878212 -0.000001
v -0.922987 16.878212 5.999998
v 0.129974 17.008478 -0.000002
v 0.129974 17.008478 5.999999
vn -0.9995 0.0328 -0.0000
vn -0.9951 0.0990 -0.0000
vn -0.9859 0.1673 -0.0000
vn -0.9709 0.2394 -0.0000
vn -0.9485 0.3169 -0.0000
vn -0.9158 0.4016 -0.0000
vn -0.8687 0.4953 -0.0000
vn -0.8007 0.5991 -0.0000
vn -0.7022 0.7120 -0.0000
vn -0.5617 0.8273 -0.0000
vn -0.3696 0.9292 -0.0000
vn -0.1300 0.9915 -0.0000
vn 0.9995 -0.0325 -0.0000
vn 0.9951 -0.0989 -0.0000
vn 0.9859 -0.1673 -0.0000
vn 0.9709 -0.2393 -0.0000
vn 0.9485 -0.3168 -0.0000
vn 0.9159 -0.4014 -0.0000
vn 0.8689 -0.4950 -0.0000
vn 0.8010 -0.5987 -0.0000
vn 0.7029 -0.7113 -0.0000
vn 0.5630 -0.8265 -0.0000
vn 0.3713 -0.9285 -0.0000
vn 0.1228 -0.9924 -0.0000
vn -0.0328 -0.9995 -0.0000
vn -0.0000 -0.0000 1.0000
vn -0.0000 -0.0000 -1.0000
vn 0.9915 0.1300 -0.0000
vt 0.000000 1.000000
vt 0.083333 1.000000
vt 0.083333 0.000000
vt 0.000000 0.000000
vt 0.166667 1.000000
vt 0.166667 0.000000
vt 0.250000 1.000000
vt 0.250000 0.000000
vt 0.333333 1.000000
vt 0.333333 0.000000
vt 0.416667 1.000000
vt 0.416667 0.000000
vt 0.500000 1.000000
vt 0.500000 0.000000
vt 0.583333 1.000000
vt 0.583333 0.000000
vt 0.666667 1.000000
vt 0.666667 0.000000
vt 0.750000 1.000000
vt 0.750000 0.000000
vt 0.833333 1.000000
vt 0.833333 0.000000
vt 0.916667 1.000000
vt 0.916667 0.000000
vt 1.000000 1.000000
vt 1.000000 0.000000
s 0
f 2/1/1 4/2/1 3/3/1 1/4/1
f 4/2/2 6/5/2 5/6/2 3/3/2
f 6/5/3 8/7/3 7/8/3 5/6/3
f 8/7/4 10/9/4 9/10/4 7/8/4
f 10/9/5 12/11/5 11/12/5 9/10/5
f 12/11/6 14/13/6 13/14/6 11/12/6
f 14/13/7 16/15/7 15/16/7 13/14/7
f 16/15/8 18/17/8 17/18/8 15/16/8
f 18/17/9 20/19/9 19/20/9 17/18/9
f 20/19/10 22/21/10 21/22/10 19/20/10
f 22/21/11 24/23/11 23/24/11 21/22/11
f 24/23/12 26/25/12 25/26/12 23/24/12
f 28/1/13 27/4/13 29/3/13 30/2/13
f 30/2/14 29/3/14 31/6/14 32/5/14
f 32/5/15 31/6/15 33/8/15 34/7/15
f 34/7/16 33/8/16 35/10/16 36/9/16
f 36/9/17 35/10/17 37/12/17 38/11/17
f 38/11/18 37/12/18 39/14/18 40/13/18
f 40/13/19 39/14/19 41/16/19 42/15/19
f 42/15/20 41/16/20 43/18/20 44/17/20
f 44/17/21 43/18/21 45/20/21 46/19/21
f 46/19/22 45/20/22 47/22/22 48/21/22
f 48/21/23 47/22/23 49/24/23 50/23/23
f 50/23/24 49/24/24 51/26/24 52/25/24
f 2/1/25 1/4/25 27/4/25 28/1/25
f 4/2/26 2/1/26 28/1/26 30/2/26
f 1/4/27 3/3/27 29/3/27 27/4/27
f 6/5/26 4/2/26 30/2/26 32/5/26
f 3/3/27 5/6/27 31/6/27 29/3/27
f 8/7/26 6/5/26 32/5/26 34/7/26
f 5/6/27 7/8/27 33/8/27 31/6/27
f 10/9/26 8/7/26 34/7/26 36/9/26
f 7/8/27 9/10/27 35/10/27 33/8/27
f 12/11/26 10/9/26 36/9/26 38/11/26
f 9/10/27 11/12/27 37/12/27 35/10/27
f 14/13/26 12/11/26 38/11/26 40/13/26
f 11/12/27 13/14/27 39/14/27 37/12/27
f 16/15/26 14/13/26 40/13/26 42/15/26
f 13/14/27 15/16/27 41/16/27 39/14/27
f 18/17/26 16/15/26 42/15/26 44/17/26
f 15/16/27 17/18/27 43/18/27 41/16/27
f 20/19/26 18/17/26 44/17/26 46/19/26
f 17/18/27 19/20/27 45/20/27 43/18/27
f 22/21/26 20/19/26 46/19/26 48/21/26
f 19/20/27 21/22/27 47/22/27 45/20/27
f 24/23/26 22/21/26 48/21/26 50/23/26
f 21/22/27 23/24/27 49/24/27 47/22/27
f 26/25/26 24/23/26 50/23/26 52/25/26
f 25/26/28 26/25/28 52/25/28 51/26/28
f 23/24/27 25/26/27 51/26/27 49/24/27
