# Blender 4.2.1 LTS
# www.blender.org
mtllib 0.5-2_left_inner_circle.mtl
o 0.5-2_left_inner_circle
v -2.357684 1.037834 0.000000
v -1.769268 2.229548 0.000000
v -1.253241 3.588435 0.000000
v -0.818433 5.091246 0.000000
v -0.472283 6.712268 0.000000
v -0.220713 8.423765 0.000000
v -0.068029 10.196452 0.000000
v 0.000000 11.999998 0.000001
v -2.675016 0.507406 0.000000
v -2.055209 1.611921 0.000000
v -1.501828 2.889899 0.000000
v -1.025412 4.323753 0.000000
v -0.634112 5.888949 0.000000
v -0.334625 7.558709 0.000000
v -0.132074 9.304460 0.000000
v -0.027785 11.096332 0.000000
v 0.000000 0.000000 0.000000
v -3.000000 0.000000 0.000000
v -2.357686 1.037834 2.000000
v -1.769270 2.229548 2.000000
v -1.253244 3.588435 2.000000
v -0.818435 5.091246 2.000000
v -0.472285 6.712268 2.000000
v -0.220715 8.423765 2.000000
v -0.068031 10.196452 2.000000
v -0.000002 11.999998 2.000000
v -2.675019 0.507406 2.000000
v -2.055211 1.611921 2.000000
v -1.501830 2.889899 2.000000
v -1.025414 4.323753 2.000000
v -0.634115 5.888949 2.000000
v -0.334627 7.558709 2.000000
v -0.132076 9.304460 2.000000
v -0.027788 11.096332 2.000000
v -0.000002 -0.000000 2.000000
v -3.000002 -0.000000 2.000000
v 0.000000 11.092162 0.000000
v 0.000000 10.193233 0.000000
v 0.000000 9.276285 0.000000
v 0.000000 8.392485 0.000000
v 0.000000 7.534583 0.000000
v 0.000000 6.606604 0.000000
v 0.000000 5.745822 0.000000
v 0.000000 4.901917 0.000000
v 0.000000 3.995169 0.000000
v 0.000000 3.104994 0.000000
v 0.000000 2.163540 0.000000
v 0.000000 1.093577 0.000000
v -0.000002 11.092163 2.000000
v -0.000002 10.193233 2.000000
v -0.000002 9.276285 2.000000
v -0.000002 8.392488 2.000000
v -0.000002 7.534583 2.000000
v -0.000002 6.606604 2.000000
v -0.000002 5.745823 2.000000
v -0.000002 4.901917 2.000000
v -0.000002 3.995170 2.000000
v -0.000002 3.104994 2.000000
v -0.000002 2.163540 2.000000
v -0.000002 1.093577 2.000000
v -1.190218 0.000000 0.000000
v -2.151371 0.000000 0.000000
v -1.190217 -0.000000 2.000000
v -2.151371 -0.000000 2.000000
vn -0.0000 -0.0000 -1.0000
vn -0.0000 -0.0000 1.0000
vn -0.9812 0.1929 -0.0000
vn -0.8582 0.5134 -0.0000
vn 1.0000 -0.0000 -0.0000
vn -0.9743 0.2251 -0.0000
vn -0.9075 0.4201 -0.0000
vn -0.0000 -1.0000 -0.0000
vn -0.9914 0.1306 -0.0000
vn -0.8847 0.4661 -0.0000
vn -0.8421 0.5393 -0.0000
vn -0.9870 0.1605 -0.0000
vn -0.9421 0.3353 -0.0000
vn -0.9974 0.0716 -0.0000
vn -0.9269 0.3754 -0.0000
vn -0.9950 0.1001 -0.0000
vn -0.9655 0.2604 -0.0000
vn -0.9995 0.0307 -0.0000
vn -0.9552 0.2960 -0.0000
vn -0.9990 0.0447 -0.0000
vt 0.777190 0.085155
vt 0.000000 0.000000
vt 0.947476 0.279329
vt 0.961940 0.308658
vt 0.804381 0.103323
vt 0.091131 0.045566
vt 0.933013 0.250000
vt 0.828967 0.124885
vt 0.853554 0.146447
vt 0.972451 0.339624
vt 0.982963 0.370591
vt 0.875115 0.171033
vt 0.896677 0.195619
vt 0.989343 0.402664
vt 0.995723 0.434737
vt 0.914845 0.222810
vt 0.997861 0.467369
vt 1.000000 0.500000
vt 0.180295 0.090148
vt 0.258750 0.129375
vt 0.332931 0.166465
vt 0.408493 0.204247
vt 0.478819 0.239409
vt 0.550550 0.275275
vt 0.627882 0.313941
vt 0.699374 0.349687
vt 0.773024 0.386512
vt 0.849436 0.424718
vt 0.924347 0.462174
vt 0.332931 0.166465
vt 0.408493 0.204247
vt 0.478819 0.239409
vt 0.699374 0.349687
vt 0.773024 0.386512
vt 0.849436 0.424718
vt 0.924347 0.462174
s 0
usemtl Material
f 9/1/1 62/2/1 18/2/1
f 27/1/2 36/2/2 64/2/2
f 13/3/3 23/4/3 5/4/3
f 9/1/4 19/5/4 1/5/4
f 48/6/5 35/2/5 17/2/5
f 4/7/6 31/3/6 13/3/6
f 10/8/7 20/9/7 2/9/7
f 18/2/8 64/2/8 36/2/8
f 14/10/9 24/11/9 6/11/9
f 1/5/10 28/8/10 10/8/10
f 9/1/11 36/2/11 27/1/11
f 5/4/12 32/10/12 14/10/12
f 11/12/13 21/13/13 3/13/13
f 15/14/14 25/15/14 7/15/14
f 2/9/15 29/12/15 11/12/15
f 6/11/16 33/14/16 15/14/16
f 12/16/17 22/7/17 4/7/17
f 16/17/18 26/18/18 8/18/18
f 3/13/19 30/16/19 12/16/19
f 7/15/20 34/17/20 16/17/20
f 64/2/2 19/5/2 27/1/2
f 63/2/2 28/8/2 19/5/2
f 28/8/2 60/6/2 20/9/2
f 20/9/2 59/19/2 29/12/2
f 29/12/2 58/20/2 21/13/2
f 21/13/2 57/21/2 30/16/2
f 30/16/2 56/22/2 22/7/2
f 22/7/2 55/23/2 31/3/2
f 31/3/2 54/24/2 23/4/2
f 23/4/2 53/25/2 32/10/2
f 32/10/2 52/26/2 24/11/2
f 24/11/2 51/27/2 33/14/2
f 33/14/2 50/28/2 25/15/2
f 25/15/2 49/29/2 34/17/2
f 34/17/2 49/29/2 26/18/2
f 48/6/5 59/19/5 60/6/5
f 47/19/5 58/20/5 59/19/5
f 58/20/5 45/30/5 57/21/5
f 57/21/5 44/31/5 56/22/5
f 56/22/5 43/32/5 55/23/5
f 55/23/5 42/24/5 54/24/5
f 54/24/5 41/25/5 53/25/5
f 53/25/5 40/33/5 52/26/5
f 52/26/5 39/34/5 51/27/5
f 51/27/5 38/35/5 50/28/5
f 50/28/5 37/36/5 49/29/5
f 49/29/5 8/18/5 26/18/5
f 62/2/8 63/2/8 64/2/8
f 61/2/8 35/2/8 63/2/8
f 62/2/1 1/5/1 61/2/1
f 61/2/1 10/8/1 17/2/1
f 10/8/1 48/6/1 17/2/1
f 2/9/1 47/19/1 48/6/1
f 11/12/1 46/20/1 47/19/1
f 3/13/1 45/30/1 46/20/1
f 12/16/1 44/31/1 45/30/1
f 4/7/1 43/32/1 44/31/1
f 13/3/1 42/24/1 43/32/1
f 5/4/1 41/25/1 42/24/1
f 14/10/1 40/33/1 41/25/1
f 6/11/1 39/34/1 40/33/1
f 15/14/1 38/35/1 39/34/1
f 7/15/1 37/36/1 38/35/1
f 37/36/1 16/17/1 8/18/1
f 13/3/3 31/3/3 23/4/3
f 9/1/4 27/1/4 19/5/4
f 48/6/5 60/6/5 35/2/5
f 4/7/6 22/7/6 31/3/6
f 10/8/7 28/8/7 20/9/7
f 18/2/8 62/2/8 64/2/8
f 14/10/9 32/10/9 24/11/9
f 1/5/10 19/5/10 28/8/10
f 9/1/11 18/2/11 36/2/11
f 5/4/12 23/4/12 32/10/12
f 11/12/13 29/12/13 21/13/13
f 15/14/14 33/14/14 25/15/14
f 2/9/15 20/9/15 29/12/15
f 6/11/16 24/11/16 33/14/16
f 12/16/17 30/16/17 22/7/17
f 16/17/18 34/17/18 26/18/18
f 3/13/19 21/13/19 30/16/19
f 7/15/20 25/15/20 34/17/20
f 64/2/2 63/2/2 19/5/2
f 63/2/2 35/2/2 28/8/2
f 28/8/2 35/2/2 60/6/2
f 20/9/2 60/6/2 59/19/2
f 29/12/2 59/19/2 58/20/2
f 21/13/2 58/20/2 57/21/2
f 30/16/2 57/21/2 56/22/2
f 22/7/2 56/22/2 55/23/2
f 31/3/2 55/23/2 54/24/2
f 23/4/2 54/24/2 53/25/2
f 32/10/2 53/25/2 52/26/2
f 24/11/2 52/26/2 51/27/2
f 33/14/2 51/27/2 50/28/2
f 25/15/2 50/28/2 49/29/2
f 48/6/5 47/19/5 59/19/5
f 47/19/5 46/20/5 58/20/5
f 58/20/5 46/20/5 45/30/5
f 57/21/5 45/30/5 44/31/5
f 56/22/5 44/31/5 43/32/5
f 55/23/5 43/32/5 42/24/5
f 54/24/5 42/24/5 41/25/5
f 53/25/5 41/25/5 40/33/5
f 52/26/5 40/33/5 39/34/5
f 51/27/5 39/34/5 38/35/5
f 50/28/5 38/35/5 37/36/5
f 49/29/5 37/36/5 8/18/5
f 62/2/8 61/2/8 63/2/8
f 61/2/8 17/2/8 35/2/8
f 62/2/1 9/1/1 1/5/1
f 61/2/1 1/5/1 10/8/1
f 10/8/1 2/9/1 48/6/1
f 2/9/1 11/12/1 47/19/1
f 11/12/1 3/13/1 46/20/1
f 3/13/1 12/16/1 45/30/1
f 12/16/1 4/7/1 44/31/1
f 4/7/1 13/3/1 43/32/1
f 13/3/1 5/4/1 42/24/1
f 5/4/1 14/10/1 41/25/1
f 14/10/1 6/11/1 40/33/1
f 6/11/1 15/14/1 39/34/1
f 15/14/1 7/15/1 38/35/1
f 7/15/1 16/17/1 37/36/1
